<svg xmlns="http://www.w3.org/2000/svg" xmlns:xlink="http://www.w3.org/1999/xlink" viewBox="0 0 1570.08 1506.81"><defs><style>.cls-1{mask:url(#mask);filter:url(#luminosity-noclip-3);}.cls-2,.cls-4{mix-blend-mode:multiply;}.cls-2{fill:url(#linear-gradient);}.cls-3{mask:url(#mask-2);filter:url(#luminosity-noclip-4);}.cls-4{fill:url(#linear-gradient-2);}.cls-5{isolation:isolate;}.cls-6{fill:#1476ad;}.cls-14,.cls-7{mix-blend-mode:soft-light;}.cls-7{opacity:0.3;}.cls-8{fill:#fff;}.cls-9{fill:#f5be9b;}.cls-10{fill:#fa267b;}.cls-11{fill:#545252;}.cls-12{fill:#383636;}.cls-13{fill:#d6d6d6;}.cls-14{opacity:0.45;}.cls-15{fill:#d89671;}.cls-16{fill:#231c2d;}.cls-17{fill:#1b1723;}.cls-18{fill:#322a3f;}.cls-19{fill:#e5817c;opacity:0.37;}.cls-20{fill:#e56382;}.cls-21{fill:#ffdbc7;}.cls-22{fill:#473c5b;}.cls-23{fill:#342b42;}.cls-24{mask:url(#mask-3);}.cls-25{fill:url(#linear-gradient-3);}.cls-26{mask:url(#mask-4);}.cls-27{fill:url(#linear-gradient-4);}.cls-28{filter:url(#luminosity-noclip-2);}.cls-29{filter:url(#luminosity-noclip);}</style><filter id="luminosity-noclip" x="779.15" y="-8696.81" width="154.85" height="32766" filterUnits="userSpaceOnUse" color-interpolation-filters="sRGB"><feFlood flood-color="#fff" result="bg"/><feBlend in="SourceGraphic" in2="bg"/></filter><mask id="mask" x="779.15" y="-8696.81" width="154.85" height="32766" maskUnits="userSpaceOnUse"><g class="cls-29"/></mask><linearGradient id="linear-gradient" x1="3010.08" y1="640.85" x2="2902.23" y2="983.56" gradientTransform="matrix(-0.99, -0.13, -0.13, 0.99, 3883.6, 88.47)" gradientUnits="userSpaceOnUse"><stop offset="0" stop-color="#fff"/><stop offset="1"/></linearGradient><filter id="luminosity-noclip-2" x="506.95" y="-8696.81" width="208.31" height="32766" filterUnits="userSpaceOnUse" color-interpolation-filters="sRGB"><feFlood flood-color="#fff" result="bg"/><feBlend in="SourceGraphic" in2="bg"/></filter><mask id="mask-2" x="506.95" y="-8696.81" width="208.31" height="32766" maskUnits="userSpaceOnUse"><g class="cls-28"/></mask><linearGradient id="linear-gradient-2" x1="-1724.33" y1="592.47" x2="-1853.66" y2="1003.43" gradientTransform="matrix(0.99, 0.13, -0.13, 0.99, 2515.2, -97.52)" xlink:href="#linear-gradient"/><filter id="luminosity-noclip-3" x="779.15" y="499.17" width="154.85" height="154.09" filterUnits="userSpaceOnUse" color-interpolation-filters="sRGB"><feFlood flood-color="#fff" result="bg"/><feBlend in="SourceGraphic" in2="bg"/></filter><mask id="mask-3" x="779.15" y="499.17" width="154.85" height="154.09" maskUnits="userSpaceOnUse"><g class="cls-1"><path class="cls-2" d="M818.41,649.45a354.94,354.94,0,0,0,44.4,3.8c21.57.41,42.15-18.58,51.48-46.81A637.77,637.77,0,0,0,933.84,531c.58-2.91-.43-5.86-2.31-6.7-35.12-15.74-74.93-23.89-119.61-25.08-14.21-.37-26.95,14-29.34,33.25a460,460,0,0,0-3.43,56.34C779.14,620.88,795.57,646.13,818.41,649.45Z"/></g></mask><linearGradient id="linear-gradient-3" x1="3010.08" y1="640.85" x2="2902.23" y2="983.56" gradientTransform="matrix(-0.99, -0.13, -0.13, 0.99, 3883.6, 88.47)" gradientUnits="userSpaceOnUse"><stop offset="0" stop-color="#fff"/><stop offset="1" stop-color="#fff"/></linearGradient><filter id="luminosity-noclip-4" x="506.95" y="444.95" width="208.31" height="190.57" filterUnits="userSpaceOnUse" color-interpolation-filters="sRGB"><feFlood flood-color="#fff" result="bg"/><feBlend in="SourceGraphic" in2="bg"/></filter><mask id="mask-4" x="506.95" y="444.95" width="208.31" height="190.57" maskUnits="userSpaceOnUse"><g class="cls-3"><path class="cls-4" d="M637.26,635.51a593.36,593.36,0,0,1-62.42-4.33c-33.46-4.16-60-33.46-64.35-72.8-3.69-33.07-4.44-68.59-2.5-106.22.21-4.06,3.25-7.25,6.9-7.21a550.61,550.61,0,0,1,177.46,31.26c15.87,5.56,25.35,25,22.36,45.16a461.21,461.21,0,0,1-12.58,58.13C692.74,612.57,666.34,636,637.26,635.51Z"/></g></mask><linearGradient id="linear-gradient-4" x1="-1724.33" y1="592.47" x2="-1853.66" y2="1003.43" gradientTransform="matrix(0.99, 0.13, -0.13, 0.99, 2515.2, -97.52)" xlink:href="#linear-gradient-3"/></defs><g class="cls-5"><g id="Layer_2" data-name="Layer 2"><g id="Layer_1-2" data-name="Layer 1"><path class="cls-6" d="M1210.24,849.8v.1c-.07.75-.17,1.5-.28,2.25s-.24,1.56-.42,2.35l-5.89,25.21c-2.4,10.07-10.36,18.29-20.94,21.62l-30.92,9.59-16.89,5.22-6.31,2,3.7-19.6,23.52-7,14.38-4.28c10.79-3.19,19-11.48,21.33-21.72a27.14,27.14,0,0,0,.74-6.26c0-13.14-9.59-25-23.83-28.37a8.77,8.77,0,0,0-1.2-.3l-15-3-1.8,6.07-15.65,51.59,13.75-73.08,22.85,4.6,9.76,2,4.13.82C1200.69,822.7,1211.06,835.65,1210.24,849.8Z"/><path class="cls-6" d="M1171.36,816.8c-.07.39-.11.78-.21,1.17l-2.72,12.95-12.62,60.63-4,19.37-5.11,24.43c-1.62,7.89-9.38,14-17.38,14H1027.93c-8,0-15.76-6.1-17.38-14l-4.09-19.47L986.08,818c-1.48-7.11-.81-13.79,1.62-19,2.83-6,7.87-9.81,14.28-9.81h153.26C1167,789.21,1174,801.86,1171.36,816.8Z"/><path class="cls-7" d="M1006.47,915.87l4.09,19.49c1.35,6.56,7,11.87,13.45,13.46a15.2,15.2,0,0,0,3.94.5h101.36c8,0,15.76-6.1,17.39-14l5.1-24.42,30.91-9.62c10.59-3.3,18.55-11.54,20.94-21.62l5.88-25.21a16,16,0,0,0,.42-2.34c.12-.75.23-1.51.31-2.26v-.08h-.5c-19.51,0-26.32-19.07-28.63-31.07l-9.78-1.92c2.67-15-4.33-27.6-16.11-27.6H1144a162.37,162.37,0,0,1-7.65,38,135.45,135.45,0,0,1-21.1,40.43,116.14,116.14,0,0,1-46.06,35.71C1052.37,910.69,1031.74,915.41,1006.47,915.87Zm149.35-24.33,12.59-60.63c14.26,3.38,23.84,15.26,23.84,28.39a27.34,27.34,0,0,1-.73,6.27c-2.36,10.24-10.55,18.52-21.33,21.7Z"/><path class="cls-8" d="M1043,372.57a131.08,131.08,0,0,0-14.91,3.48c-4.9,1.42-9.73,3.08-14.48,4.94s-9.37,4-13.92,6.32l-3.35,1.83-1.68.91L993,391l-3.27,2-3.18,2.11a106.79,106.79,0,0,0-22.74,20.14l-1.24,1.44c-.42.48-.77,1-1.16,1.51l-2.28,3.05c-.79,1-1.42,2.1-2.12,3.15l-2,3.2-1.82,3.34c-.59,1.12-1.26,2.2-1.77,3.36l-1.55,3.47c-.51,1.16-1.07,2.3-1.46,3.5a102.86,102.86,0,0,0-6.37,29.6l-.29,7.6.24,7.61A63.94,63.94,0,0,0,944.44,501a75.23,75.23,0,0,0,14.64,26.25,126.53,126.53,0,0,0,10.49,11c3.71,3.46,7.63,6.7,11.62,9.84,16,12.55,33.61,23,50.75,34.17,8.57,5.57,17.08,11.28,25.18,17.57s15.81,13.2,22.16,21.34a67.4,67.4,0,0,1,8.07,13.18,51.72,51.72,0,0,1,4.28,14.85,54,54,0,0,1-.3,15.44,73.5,73.5,0,0,1-4.25,14.8,122.37,122.37,0,0,1-15.45,26.48,241.56,241.56,0,0,1-20,23.22,242.92,242.92,0,0,0,19.61-23.5A121.22,121.22,0,0,0,1086.17,679a72.94,72.94,0,0,0,4.06-14.62,53.36,53.36,0,0,0,.16-15.09,50.18,50.18,0,0,0-4.31-14.43,65.68,65.68,0,0,0-8-12.82,99.84,99.84,0,0,0-10.37-11.1c-3.72-3.45-7.6-6.74-11.64-9.83-8.06-6.22-16.54-11.88-25.11-17.41-17.14-11.06-34.78-21.51-51-34.13-4-3.18-8-6.46-11.72-10a127.77,127.77,0,0,1-10.63-11.19,76.88,76.88,0,0,1-14.91-26.95,66.17,66.17,0,0,1-2.5-15.29l-.22-7.7.32-7.71a101.2,101.2,0,0,1,6.66-30,38.26,38.26,0,0,1,1.52-3.55l1.61-3.51c.52-1.17,1.22-2.27,1.82-3.4l1.88-3.37,2.11-3.23c.72-1.07,1.37-2.18,2.18-3.18l2.34-3.07c.4-.51.76-1,1.18-1.52l1.27-1.45A107.74,107.74,0,0,1,986,394.3l3.24-2.07,3.33-1.93,1.66-1,1.7-.89,3.41-1.78c4.6-2.25,9.29-4.31,14.07-6.13s9.66-3.37,14.59-4.72A129.59,129.59,0,0,1,1043,372.57Z"/><path class="cls-8" d="M1082.74,386.53a184.59,184.59,0,0,0-26.07,13.17,136.82,136.82,0,0,0-23.27,17.51c-7,6.66-13.2,14.39-16.84,23.35a43.41,43.41,0,0,0-2.18,6.86,39.8,39.8,0,0,0-1,7.11,42.5,42.5,0,0,0,1.69,14.22,56.37,56.37,0,0,0,5.86,13.13,85.09,85.09,0,0,0,8.51,11.69A136.22,136.22,0,0,0,1039.52,504q5.3,5,10.92,9.64c15,12.41,31,23.49,46.89,34.85,7.92,5.7,15.81,11.45,23.53,17.44a286.45,286.45,0,0,1,22.33,19c7,6.82,13.66,14.16,18.79,22.61a58.1,58.1,0,0,1,6.08,13.49,41.73,41.73,0,0,1,1.65,14.74,44.17,44.17,0,0,1-3.61,14.36,60.85,60.85,0,0,1-7.61,12.63c-1.45,2-3.11,3.8-4.71,5.66-.84.9-1.7,1.77-2.55,2.65l-1.28,1.33-1.33,1.26-2.68,2.51c-.92.81-1.86,1.59-2.78,2.39-1.84,1.63-3.78,3.12-5.7,4.62A229.83,229.83,0,0,1,1113,699.4c-8.43,4.91-17.08,9.42-25.83,13.72,8.68-4.44,17.25-9.1,25.59-14.14a229.09,229.09,0,0,0,24.06-16.51c1.89-1.53,3.81-3,5.61-4.65.91-.8,1.84-1.59,2.74-2.41l2.63-2.51,1.31-1.26,1.25-1.32c.83-.88,1.68-1.75,2.5-2.64,1.56-1.86,3.18-3.66,4.58-5.63a58.75,58.75,0,0,0,7.34-12.42,42.49,42.49,0,0,0,3.36-13.91,40,40,0,0,0-1.71-14.16,56.76,56.76,0,0,0-6-13.08c-5-8.24-11.61-15.47-18.57-22.2a285.75,285.75,0,0,0-22.24-18.83c-7.71-5.94-15.6-11.65-23.53-17.32-15.8-11.41-31.85-22.56-46.89-35.08q-5.62-4.69-11-9.75a136.19,136.19,0,0,1-10.18-10.62c-6.37-7.44-11.83-15.95-14.53-25.52a44,44,0,0,1-1.61-14.71,39.46,39.46,0,0,1,1.11-7.33,45.26,45.26,0,0,1,2.3-7c3.83-9.14,10.19-16.93,17.34-23.58a137.67,137.67,0,0,1,23.68-17.21A184.56,184.56,0,0,1,1082.74,386.53Z"/><path class="cls-9" d="M161.5,999.75c2.33,4.67,23.34,342.06,77.05,385.25s385.25,61.88,479.81,44.37,91.06-98.07,91.06-98.07H670.5s-284.86-214.81-287.19-228.82S278.24,922.7,272.4,926.2,161.5,999.75,161.5,999.75Z"/><path class="cls-7" d="M800.83,1370.7c-10.38,23.16-33,49.48-82.44,58.69-94.56,17.52-426.13-1.16-479.84-44.41s-74.72-380.56-77-385.21c0,0,105.1-70.06,110.91-73.55,4.4-2.66,63.67,90.49,93.73,142.79-30.64-4.81-85.84-14.36-126.44-26.07-59.11-17.1-37.36,210.12,126.1,179s18.68,4.65-53,17.1C243,1251.15,272.42,1398.1,800.83,1370.7Z"/><path class="cls-9" d="M730,1095.48S773.23,1315,871.3,1308s207.8-421.44,207.8-421.44L981,835.14l-127.25,247.5-18.68-46.7S748.72,1002.08,730,1095.48Z"/><path class="cls-7" d="M730,1095.48S773.23,1315,871.3,1308s207.8-421.44,207.8-421.44L981,835.14l-127.25,247.5-18.68-46.7S748.72,1002.08,730,1095.48Z"/><path class="cls-10" d="M730,1095.49c7.06,53.72-45.49,98-46.65,101.54s-12.87,134.24-12.87,134.24a1086.27,1086.27,0,0,1-135.4-15.11c-71.23-12.87-192.61-86.43-192.61-86.43l4.65-181c-107.42-9.3-185.62-49-185.62-49s-5.82-75.87,8.13-108.58c7.31-17,71.07-51.81,131.09-83.85,55.2-29.47,107.17-56.7,109.42-65.59,4.64-18.67-2.33-136.56-2.33-136.56,92.23-74.72,160,122.53,197.33,157.57,29.89,28,103.61,82,147,112.74,11,7.72,19.92,14,25.82,18,29.14,19.84,65.33,155.25,65.33,155.25C813,1087.28,730,1095.49,730,1095.49Z"/><path class="cls-7" d="M777.33,1086a295.77,295.77,0,0,1-47.32,9.46L708.26,1004l15.53-38.94s-35.78,7.81-79.37,42.09-122.95,26.4-172.76,4.65-95,17.1-79.36,90.24,110.49,71.65,157.15,65.42c42.84-5.73,101.28,16.11,149.1,12.45-8.22,9.8-14.78,15.94-15.19,17.11-.17.58-.75,5.23-1.5,12.37-52.63-8.64-130.67-15.11-193.1,6.3-40.92,14-41.84,44.17-27.72,75.63-59.78-26-118.56-61.6-118.56-61.6l4.65-181s17.11-119.47-21.83-163c-33.87-37.94-112.74,5.56-105.6,136.89-36.36-11.78-58.19-22.83-58.19-22.83s-5.82-75.87,8.13-108.58c7.31-17,71.07-51.81,131.09-83.85,55.2-29.47,107.17-56.7,109.42-65.59,4.64-18.67-2.33-136.56-2.33-136.56,92.23-74.72,160,122.53,197.33,157.57,29.89,28,103.61,82,147,112.74,11,7.72,19.92,14,25.82,18a27,27,0,0,1,2.48,2C754.92,918.25,732.26,969.89,777.33,1086Z"/><path class="cls-9" d="M752.1,875.5C534.59,1007.66,356.18,862,300.73,807.34c55.2-29.47,107.17-56.7,109.42-65.59,4.64-18.67-2.33-136.56-2.33-136.56,92.23-74.72,160,122.53,197.33,157.57C635,790.74,708.76,844.78,752.1,875.5Z"/><path class="cls-7" d="M752.1,875.5C534.59,1007.66,356.18,862,300.73,807.34c55.2-29.47,107.17-56.7,109.42-65.59,4.64-18.67-2.33-136.56-2.33-136.56,92.23-74.72,160,122.53,197.33,157.57C635,790.74,708.76,844.78,752.1,875.5Z"/><polygon class="cls-11" points="1539.86 910.32 1303.38 1389.94 799.33 1410.76 777.38 1411.67 782.66 1389.05 893.12 917.05 922.15 902.44 1519.83 895.85 1539.86 910.32"/><path class="cls-12" d="M576.37,1407.73l-.22,26.84a9,9,0,0,0,8.64,9.1l221.72,10h.77l488.09-19.41a9,9,0,0,0,8.68-9.21l-.69-35a9,9,0,0,0-9.44-8.86l-494.45,22.38h-.61l-213.25-4.73A9,9,0,0,0,576.37,1407.73Z"/><ellipse class="cls-12" cx="1159.13" cy="1175.21" rx="70.47" ry="54.2" transform="translate(-183.33 2135.68) rotate(-80.98)"/><polygon class="cls-7" points="1539.86 910.32 1303.38 1389.94 799.33 1410.76 777.38 1411.67 782.66 1389.05 798.85 1403.47 1539.86 910.32"/><polygon class="cls-12" points="922.18 902.42 799.37 1410.74 777.36 1411.66 893.14 917.06 922.18 902.42"/><rect class="cls-13" y="1422.75" width="1569.04" height="84.06" rx="7.53"/><path class="cls-7" d="M1570.08,1464.76a42,42,0,0,1-42.09,42H43a42,42,0,1,1,0-84h21a42,42,0,0,0,42,42Z"/><path class="cls-9" d="M379.22,675.89c-17.09,7.93-32,8.06-44.7,3.19-45.93-17.72-62.21-101.7-43.2-122.88,1-1.06,2-2.06,3-3,24.36-22,60.82.87,60.82.87S458.16,639.25,379.22,675.89Z"/><path class="cls-14" d="M379.22,675.89c-17.09,7.93-32,8.06-44.7,3.19,18.57-.46,27.85-11.12,12.13-16.74-22-7.91-61.23-51.74-47.13-68.32,13.74-16.24,37.56,11,38.64,12.28-14.39-40.72-35.48-50.7-43.87-53.1,24.36-22,60.82.87,60.82.87S458.16,639.25,379.22,675.89Z"/><path class="cls-15" d="M367,650.59c-5.1-6.59-9.58-13.11-14.15-19.48s-9.1-12.54-13.91-18.32c-.59-.74-1.22-1.43-1.83-2.15s-1.23-1.4-1.87-2.07c-1.21-1.43-2.54-2.7-3.81-4a77.56,77.56,0,0,0-8.28-7.15,46.84,46.84,0,0,0-20.8-8.83,27.37,27.37,0,0,1,12.53-2.28c1.08.09,2.2.13,3.28.31s2.16.43,3.25.65a42.61,42.61,0,0,1,6.23,2.19,51.29,51.29,0,0,1,11.12,6.88c1.64,1.39,3.26,2.82,4.77,4.33.76.75,1.5,1.52,2.2,2.32s1.45,1.56,2.11,2.38a87.23,87.23,0,0,1,12.95,21.34,89.24,89.24,0,0,1,4.08,11.68c.53,2,1,4,1.37,6A47.09,47.09,0,0,1,367,650.59Z"/><path class="cls-9" d="M761.94,717.87c12.89,13.73,26.69,19.44,40.27,19.65,49.23.72,95.7-71.1,86-97.84-.51-1.36-1.07-2.65-1.63-3.89-14.37-29.55-56.74-21.91-56.74-21.91S702.4,654.39,761.94,717.87Z"/><path class="cls-14" d="M761.94,717.87c12.89,13.73,26.69,19.44,40.27,19.65-17.05-7.36-21.68-20.72-5-20.06,23.4.89,76.13-25.11,69.25-45.77-6.68-20.19-39-3.78-40.43-3,28.56-32.4,51.85-33.78,60.53-32.87-14.37-29.55-56.74-21.91-56.74-21.91S702.4,654.39,761.94,717.87Z"/><path class="cls-15" d="M782.7,698.94a46.61,46.61,0,0,1,3-5.46c1.1-1.75,2.29-3.44,3.53-5.09a90,90,0,0,1,8.14-9.31,87,87,0,0,1,20-15c.92-.52,1.9-1,2.85-1.43s1.92-.92,2.91-1.33c2-.83,4-1.56,6-2.23a50.62,50.62,0,0,1,12.88-2.23,42.84,42.84,0,0,1,6.6.3c1.1.2,2.19.39,3.26.61s2.12.62,3.16.94a27.34,27.34,0,0,1,10.77,6.79,46.86,46.86,0,0,0-22.59.42,77.52,77.52,0,0,0-10.35,3.54c-1.69.77-3.4,1.45-5,2.32-.85.39-1.69.78-2.52,1.23s-1.67.84-2.49,1.31c-6.62,3.56-13.16,7.58-19.75,11.8S789.89,694.74,782.7,698.94Z"/><path class="cls-16" d="M938.23,469.67c0,6-19.89,96.37-102.31,154.06S885.6,417.21,885.6,417.21Z"/><path class="cls-16" d="M363.61,579.29l22.07,99.65S804.59,399.09,906.1,461c4.37,2.69,8.42,5.24,12.15,7.74.26.14.49.32.75.46,81.77,54.59,12,64.58-16.41,128.2-29.83,66.67,18.78,87.72,53,109.75s42.37,43.08,44,53.35-13.3,19.6-22.88,8.25-18.57-14-18.57-14c-26.89-6.12-25.07,21.86-25.07,21.86,7.9-22,28.23-5.41,28.23-5.41s25.39,46.59,52,11.92a34.75,34.75,0,0,0,6.24-12.57v0c8.52-33-35.56-72.87-63.72-92.73-31.86-22.5-23.45-75.19,3.63-93.48s86.58-44.82,84.93-83.17S976,424.45,976,424.45c26.4-102.85-30.9-181.51-93.46-233.89C822.29,140.12,757.19,114,757.19,114S453,1.28,309.21,257.2,363.61,579.29,363.61,579.29Z"/><path class="cls-16" d="M251.07,238.36c11.65,48.69,50.18,87.17,121.9,93.12,201.49,16.7,323.32-215.14,323.32-215.14s-11.72-16.76-34.22-37.58C618.07,38.1,532.8-18,413.1,5.62,296.6,28.67,230,150.26,251.07,238.36Z"/><path class="cls-9" d="M385.5,573.87l.18,105.07C493.33,796.41,644.49,845,644.49,845,741,814.24,798.8,753,798.8,753l27.71-75.39,14.67-40,56.18-152.82L906.1,461C846.2,358.86,780.67,285.78,780.67,285.78,541.36,355.32,385.5,573.87,385.5,573.87Z"/><ellipse class="cls-14" cx="810.4" cy="568.44" rx="51.84" ry="30.84" transform="translate(25.33 1171.38) rotate(-72.57)"/><ellipse class="cls-17" cx="806.31" cy="580.91" rx="34.28" ry="20.39" transform="translate(10.56 1176.21) rotate(-72.57)"/><ellipse class="cls-8" cx="818.61" cy="572.31" rx="10.76" ry="6.4" transform="translate(27.38 1181.92) rotate(-72.57)"/><path class="cls-8" d="M804.16,582c-.94,2.85-.33,5.66,1.36,6.25s3.81-1.23,4.75-4.09.33-5.66-1.36-6.26S805.1,579.1,804.16,582Z"/><ellipse class="cls-14" cx="628.05" cy="521.46" rx="67.81" ry="40.41" transform="translate(37.32 1084.85) rotate(-83.35)"/><ellipse class="cls-17" cx="626.41" cy="538.55" rx="44.85" ry="26.73" transform="translate(18.9 1098.34) rotate(-83.35)"/><ellipse class="cls-8" cx="639.72" cy="523.33" rx="14.08" ry="8.39" transform="translate(45.79 1098.11) rotate(-83.35)"/><path class="cls-8" d="M623.94,540.64c-.37,3.91,1.22,7.2,3.57,7.33s4.54-2.92,4.92-6.84-1.22-7.2-3.57-7.34S624.32,536.72,623.94,540.64Z"/><path class="cls-16" d="M806.13,448.1c-11.58,15.56-8.08,25.87-8.08,25.87a219.06,219.06,0,0,1,34.49,14.84c.93.5,1.85,1,2.76,1.5l1.92,1.1A157.38,157.38,0,0,1,860,507.35c1.33,1.13,2.55,2.22,3.71,3.3s2.41,2.28,3.46,3.33C875,521.74,878,527.14,878,527.14A83.76,83.76,0,0,0,876.23,508c-.43-1.89-.89-3.73-1.45-5.51s-1.09-3.41-1.73-5a67.46,67.46,0,0,0-14.29-22.3c-.83-.9-1.69-1.76-2.56-2.58s-1.76-1.64-2.66-2.42C832.7,452.13,806.13,448.1,806.13,448.1Z"/><path class="cls-18" d="M874.78,502.52a59.2,59.2,0,0,0-11.08,8.13c1.25,1.16,2.41,2.28,3.46,3.33a51.43,51.43,0,0,1,9.07-6C875.8,506.14,875.34,504.3,874.78,502.52Z"/><path class="cls-18" d="M858.76,475.21c-9.17,3.41-16.7,10.6-21.54,16.2A157.38,157.38,0,0,1,860,507.35a67.32,67.32,0,0,1,13.06-9.84A67.46,67.46,0,0,0,858.76,475.21Z"/><path class="cls-18" d="M832.54,488.81c.93.5,1.85,1,2.76,1.5a71.64,71.64,0,0,1,20.9-17.68c-.88-.84-1.76-1.64-2.66-2.42A72.44,72.44,0,0,0,832.54,488.81Z"/><path class="cls-16" d="M695.24,397.79C698.71,421,689.08,430,689.08,430a267.27,267.27,0,0,0-45.29-3.86c-1.29,0-2.56,0-3.81,0-.91,0-1.8,0-2.67.09a189.62,189.62,0,0,0-33.41,4c-2.07.44-4,.91-5.86,1.4s-3.86,1.05-5.58,1.57c-12.75,3.84-19.1,7.85-19.1,7.85a102,102,0,0,1,12.81-19.38c1.54-1.77,3.09-3.47,4.69-5.05s3.13-3,4.72-4.36a81.82,81.82,0,0,1,28-15.64c1.4-.48,2.81-.9,4.2-1.29s2.82-.74,4.23-1.06C664.57,386.9,695.24,397.79,695.24,397.79Z"/><path class="cls-18" d="M590.86,416.64a71.24,71.24,0,0,1,7.18,15c-2,.52-3.86,1.05-5.58,1.57a62.6,62.6,0,0,0-6.29-11.53C587.71,419.92,589.26,418.22,590.86,416.64Z"/><path class="cls-18" d="M623.57,396.64c7.84,8.88,11.77,20.86,13.74,29.61a189.62,189.62,0,0,0-33.41,4,82.47,82.47,0,0,0-8.32-18A81.82,81.82,0,0,1,623.57,396.64Z"/><path class="cls-18" d="M643.79,426.14c-1.29,0-2.56,0-3.81,0a86.51,86.51,0,0,0-12.21-30.81c1.43-.39,2.82-.74,4.23-1.06C639.19,405.62,642.35,417.74,643.79,426.14Z"/><path class="cls-15" d="M599.79,642a71.05,71.05,0,0,1-4.76,6,44.93,44.93,0,0,1-3.68,3.78,20.74,20.74,0,0,1-1.82,1.5c-.55.55-1.33,1-2,1.6-.36.3-.84.56-1.23.9s-.85.69-1.34,1c-1,.74-1.92,1.63-3.41,2.6a10.5,10.5,0,0,1-2.25-8.55,13.16,13.16,0,0,1,1.47-4.26,14.76,14.76,0,0,1,2.85-3.48,13.85,13.85,0,0,1,7.82-3.5,12.83,12.83,0,0,1,4.27.3A10,10,0,0,1,599.79,642Z"/><path class="cls-19" d="M528.19,609.25c-1.75,13.39,22.27,20.39,53.18,24.44s57,3.6,58.77-9.79-21.89-27.53-52.8-31.57S529.94,595.86,528.19,609.25Z"/><path class="cls-19" d="M774.13,653.31c-1.7,13.26,21.86,20.27,52.38,24.29l14.67-40c-2.58-.49-5.2-.91-7.9-1.27C802.37,632.35,775.89,639.9,774.13,653.31Z"/><path class="cls-20" d="M740.42,711.16s2.69-53.29-81.72-14.38C658.7,696.78,706.2,726.52,740.42,711.16Z"/><path class="cls-20" d="M738.76,757.46s16.29,1.55,11.56,13.17-60.77,26.54-83.42-15.33S722.22,754,722.22,754Z"/><path class="cls-16" d="M611.66,671.2a124.17,124.17,0,0,0,1.63,26.18c15.24,84.68,125.47,60.08,125.47,60.08l-10.36-4.79c3.12-16.29,16-39.19,16-39.19a92.16,92.16,0,0,1-12.54,1.87C671.92,720.44,611.66,671.2,611.66,671.2Z"/><path class="cls-8" d="M611.66,671.2a124.17,124.17,0,0,0,1.63,26.18c59.51,50.59,100.58,32,118.54,18C671.92,720.44,611.66,671.2,611.66,671.2Z"/><path class="cls-15" d="M772.24,707.36a63.88,63.88,0,0,1-11.91,5.77A101.44,101.44,0,0,1,747.61,717a127.64,127.64,0,0,1-26.54,3.29l-6.73,0c-2.24-.1-4.47-.26-6.72-.39s-4.47-.42-6.7-.68-4.44-.67-6.66-1a160,160,0,0,1-26-6.95A174.54,174.54,0,0,1,643.88,700c-1.94-1.1-3.83-2.28-5.74-3.44l-2.84-1.75c-.94-.59-1.84-1.25-2.76-1.87l-5.47-3.8c-1.79-1.3-3.5-2.72-5.25-4.07a172.69,172.69,0,0,1-19.37-18c-3-3.23-5.75-6.64-8.51-10s-5.18-7.08-7.56-10.76c3.82,2.23,7.43,4.62,11,7,1.85,1.13,3.65,2.29,5.46,3.44s3.52,2.38,5.37,3.44c7.25,4.46,14.35,8.92,21.66,12.93s14.62,7.83,22,11.43c7.46,3.44,15,6.63,22.62,9.46a238,238,0,0,0,47.39,12,229.77,229.77,0,0,0,24.77,2.14A193.15,193.15,0,0,0,772.24,707.36Z"/><path class="cls-14" d="M385.5,573.87l.18,105.07c140.77,122.66,258.22,163,258.22,163,91.27-29.3,147.19-90.56,148.91-92.45-55.3,48.41-146.54,80.22-146.54,80.22C538.76,773.82,456.5,625.05,523.36,491.91S771.05,310.48,771.05,310.48c36.08,24.16,110.19,147.2,126.31,174.34L906.1,461C846.2,358.86,780.67,285.78,780.67,285.78,541.36,355.32,385.5,573.87,385.5,573.87Z"/><path class="cls-21" d="M733.75,603.93s-58.53,42.08,29.4,45.54Z"/><path class="cls-15" d="M736.39,574.55c.49,5,.76,9.94.92,14.89.08,2.47.16,4.95.18,7.42s0,4.94,0,7.4l-.59-2.39q4.17,5.37,8.17,10.86c1.36,1.81,2.65,3.66,4,5.5s2.62,3.68,3.9,5.54c2.61,3.69,5.11,7.46,7.64,11.2s5,7.54,7.38,11.37l2.32,3.7-2.68,3.07-.42.47-.3.31-.59.59-1.12,1c-.76.64-1.51,1.16-2.27,1.74l-2.34,1.45c-.79.45-1.6.84-2.39,1.25s-1.62.74-2.43,1.08-1.63.69-2.45,1l-2.49.75a22.9,22.9,0,0,1-2.49.66,62.73,62.73,0,0,1-19.89,1.28l-2.44-.19c-.81-.08-1.61-.23-2.41-.34-1.6-.24-3.2-.52-4.78-.78s-3.13-.72-4.69-1.11-3.11-.74-4.62-1.23-3-1-4.52-1.54-3-1-4.45-1.66c-2.9-1.26-5.77-2.59-8.58-4,3.16.27,6.27.62,9.34,1s6.17.51,9.21.83c3.05.16,6.09.29,9.09.4,1.51,0,3,0,4.5,0,.75,0,1.49,0,2.23,0l2.22-.17a68.62,68.62,0,0,0,17-2.86,16.11,16.11,0,0,0,2-.66l1.92-.73c.64-.25,1.23-.56,1.85-.83a14.78,14.78,0,0,0,1.78-.89c.57-.32,1.15-.63,1.7-1l1.58-1.06c.46-.38,1-.74,1.4-1.11l.62-.55.23-.24.1-.11,0,0-.36,6.77c-2.5-3.77-4.89-7.6-7.32-11.41s-4.77-7.68-7.06-11.57c-1.17-1.94-2.32-3.88-3.45-5.84s-2.28-3.91-3.37-5.89Q733.76,612,730.57,606l-.76-1.44.17-.95q.64-3.65,1.36-7.28c.46-2.43,1-4.85,1.49-7.27C733.87,584.19,735,579.36,736.39,574.55Z"/><path class="cls-18" d="M782.51,263.79s-163.1,19.11-275,138.7S341.88,528,283.09,494.85c0,0,63.63,26.82,176.86-108.82S713.69,245,713.69,245s-182.66-104.23-360.5,75c0,0,112.3-233.63,347.28-128.32,0,0-26.17-61.22-132.89-62,0,0,155.61-45.91,216.24,61.83l-63-30.31s58.78,33.13,64.57,68.67l-65.71-25.42S768.41,238.42,782.51,263.79Z"/><path class="cls-18" d="M807.21,225.1l45.42,41.43-49.91-17.79c1.41,1.2,24.51,20.91,37.71,48,0,0-23.85-21.82-43.38-19.26,0,0,97.4,90.1,121.2,191.26.22.88.44,1.72.63,2.6,0,0,0-.74.12-2.14.54-13.93.61-94.55-63.56-179.47,1.93,1.82,63.92,60.5,84.94,131.45,21.36,72.05,67.58,48.42,60.39,95s-95.53,67.53-81.9,128.13c12.22,54.41,95.56,70,100.71,126.17,8.52-33-35.56-72.87-63.72-92.73-31.86-22.5-23.45-75.19,3.63-93.48s86.58-44.82,84.93-83.17S976,424.45,976,424.45c26.4-102.85-30.9-181.51-93.46-233.89a399.26,399.26,0,0,0-71.93-11S933.36,209.72,949.76,358.7C949.76,358.7,900.06,241.29,807.21,225.1Z"/><path class="cls-18" d="M251.07,238.36c19.81-11.52,36.26-30.77,47-60.61C358.44,9.52,496.24,39.86,496.24,39.86,372.21,42,327.64,183.52,326.3,188,425.91,12,608.58,60,662.07,78.76,618.07,38.1,532.8-18,413.1,5.62,296.6,28.67,230,150.26,251.07,238.36Z"/><polygon class="cls-18" points="335.9 482.98 344.13 504.37 444.42 476.7 456.87 473.23 457.93 460.32 459.95 435.21 344.15 479.81 335.9 482.98"/><path class="cls-16" d="M335.9,483l8.23,21.39L444.42,476.7l12.45-3.47,1.06-12.91-75.77,25.27s-21.69.51-38-5.78Z"/><path class="cls-22" d="M718.18,551.41c-.65,7.67-.28,13.46,2.36,13.26,7.64-.5,12.94-22.15,12.94-22.15,13.19-7.6,27,4,27,4-2.19,16.11,5.32,24.58,5.32,24.58l5.52-33,2.55-15.25c-23.12-15.06-49.33-8.33-49.33-8.33S719.43,536.52,718.18,551.41Z"/><path class="cls-16" d="M718.18,551.41c-.65,7.67-.28,13.46,2.36,13.26,7.64-.5,12.94-22.15,12.94-22.15,13.19-7.6,27,4,27,4-2.19,16.11,5.32,24.58,5.32,24.58l5.52-33c-23.06-14.4-49-7.49-49-7.49S720.06,540.45,718.18,551.41Z"/><path class="cls-23" d="M938.34,558,949,559.7c5.38.88,10.61-5.05,11.72-13.23l1-7.21c1.11-8.18-2.3-15.65-7.66-16.7l-10.56-2.06Z"/><path class="cls-23" d="M768.68,523.73a533.88,533.88,0,0,0-4,67c0,2.78.13,5.53.32,8.23,2.69,34.16,21.45,59.93,46.61,63.34a429.62,429.62,0,0,0,52.35,3.93c25.21.21,49.14-22.15,60-55.12a749.4,749.4,0,0,0,22.68-87.94c.67-3.39-.48-6.83-2.64-7.82q-6.09-2.82-12.37-5.3c-37.67-15.36-80.17-23.67-127.86-25.46C786.76,483.88,771.52,500.78,768.68,523.73Zm12,81.24a88.59,88.59,0,0,1-1.5-16.22,456,456,0,0,1,3.41-56.33c2.38-19.3,15.14-33.63,29.35-33.25,41.82,1.12,79.35,8.34,112.78,22.18,2.31.92,4.56,1.91,6.84,2.91,1.85.82,2.88,3.78,2.29,6.71a639.65,639.65,0,0,1-19.54,75.48c-9.35,28.23-29.94,47.23-51.5,46.81a357.32,357.32,0,0,1-44.41-3.8C799.63,646.7,785.16,629.1,780.67,605Z"/><path class="cls-16" d="M779.38,530.43a471.57,471.57,0,0,0-3.6,58.75c0,33.53,17.17,59.84,41,63.25a366.49,366.49,0,0,0,46.25,3.84c22.43.39,43.8-19.4,53.48-48.76a657.32,657.32,0,0,0,20.28-78.41c.62-3-.42-6.07-2.38-7-36.42-16.45-77.82-25-124.46-26.35C795.17,495.32,781.88,510.25,779.38,530.43Zm3.2,2c2.38-19.3,15.14-33.63,29.35-33.25,44.69,1.18,84.48,9.35,119.62,25.09,1.85.82,2.88,3.78,2.29,6.71a639.65,639.65,0,0,1-19.54,75.48c-9.35,28.23-29.94,47.23-51.5,46.81a357.32,357.32,0,0,1-44.41-3.8c-22.82-3.34-39.26-28.6-39.22-60.71A456,456,0,0,1,782.58,532.42Z"/><g class="cls-24"><path class="cls-25" d="M818.41,649.45a354.94,354.94,0,0,0,44.4,3.8c21.57.41,42.15-18.58,51.48-46.81A637.77,637.77,0,0,0,933.84,531c.58-2.91-.43-5.86-2.31-6.7-35.12-15.74-74.93-23.89-119.61-25.08-14.21-.37-26.95,14-29.34,33.25a460,460,0,0,0-3.43,56.34C779.14,620.88,795.57,646.13,818.41,649.45Z"/></g><path class="cls-22" d="M768.68,523.73a533.88,533.88,0,0,0-4,67c0,2.78.13,5.53.32,8.23A100.89,100.89,0,0,0,780.67,605a88.59,88.59,0,0,1-1.5-16.22,456,456,0,0,1,3.41-56.33c2.38-19.3,15.14-33.63,29.35-33.25,41.82,1.12,79.35,8.34,112.78,22.18,2.77-4.37,5.06-8.21,6.86-11.34-37.67-15.36-80.17-23.67-127.86-25.46C786.76,483.88,771.52,500.78,768.68,523.73Z"/><path class="cls-23" d="M488.18,484.73l-20.74-3.38c-10.88-1.77-18.51-12.78-16.91-24.58L452,446.36c1.6-11.8,11.78-19.62,22.61-17.51l20.66,4Z"/><path class="cls-23" d="M705.87,464.78a649.13,649.13,0,0,0-185.07-37.9c-8-.53-16.1-.89-24.25-1-4.4-.11-8,3.63-8.28,8.5-2.26,44.9-1.31,87.16,3.22,126.53,5.34,46.74,37.11,81.18,76.9,85.7a705.76,705.76,0,0,0,73.35,4.36c31.41.22,60-23.53,72.58-57.66,1-2.66,1.89-5.39,2.66-8.18a533.72,533.72,0,0,0,14.54-67.59C735,494,724.15,471.36,705.87,464.78ZM637.28,635.52a595.31,595.31,0,0,1-62.42-4.33c-33.47-4.14-60-33.44-64.38-72.8-3.67-33.1-4.45-68.6-2.51-106.2.21-4.11,3.29-7.28,6.89-7.23,4.38.07,8.69.13,13,.33a550,550,0,0,1,164.48,30.9c15.87,5.57,25.37,25,22.36,45.18a455.89,455.89,0,0,1-12.59,58.12,93,93,0,0,1-6.38,16.29C683.56,619.92,661.34,635.91,637.28,635.52Z"/><path class="cls-16" d="M695.55,473.54a574,574,0,0,0-184.9-33c-3.86,0-7,3.26-7.2,7.51-2.05,39.36-1.26,76.36,2.66,110.91,4.57,41.07,32.28,71.58,67.23,75.81a611.92,611.92,0,0,0,65,4.37c30.24.47,57.62-24,67.35-58.33a472.18,472.18,0,0,0,13-60.32C721.76,499.46,712,479.3,695.55,473.54Zm6.57,106c-9.36,33.06-35.78,56.54-64.84,56a595.31,595.31,0,0,1-62.42-4.33c-33.47-4.14-60-33.44-64.38-72.8-3.67-33.1-4.45-68.6-2.51-106.2.21-4.11,3.29-7.28,6.89-7.23a550.79,550.79,0,0,1,177.49,31.23c15.87,5.57,25.37,25,22.36,45.18A455.89,455.89,0,0,1,702.12,579.49Z"/><g class="cls-26"><path class="cls-27" d="M637.26,635.51a593.36,593.36,0,0,1-62.42-4.33c-33.46-4.16-60-33.46-64.35-72.8-3.69-33.07-4.44-68.59-2.5-106.22.21-4.06,3.25-7.25,6.9-7.21a550.61,550.61,0,0,1,177.46,31.26c15.87,5.56,25.35,25,22.36,45.16a461.21,461.21,0,0,1-12.58,58.13C692.74,612.57,666.34,636,637.26,635.51Z"/></g><path class="cls-22" d="M731.52,517.5A533.72,533.72,0,0,1,717,585.09c-.77,2.79-1.7,5.52-2.66,8.18a117.28,117.28,0,0,1-18.58,2.51,93,93,0,0,0,6.38-16.29,455.89,455.89,0,0,0,12.59-58.12c3-20.2-6.49-39.61-22.36-45.18a550,550,0,0,0-164.48-30.9c-2.93-7.13-5.26-13.35-7.07-18.41a649.13,649.13,0,0,1,185.07,37.9C724.15,471.36,735,494,731.52,517.5Z"/></g></g></g></svg>