<?xml version="1.0" encoding="utf-8"?>
<!-- Generator: Adobe Illustrator 26.0.1, SVG Export Plug-In . SVG Version: 6.00 Build 0)  -->
<svg version="1.1" xmlns="http://www.w3.org/2000/svg" xmlns:xlink="http://www.w3.org/1999/xlink" x="0px" y="0px"
	 viewBox="0 0 500 500" style="enable-background:new 0 0 500 500;" xml:space="preserve">
<style type="text/css">
	.st0{fill:#E0E0E0;}
	.st1{fill:#F5F5F5;}
	.st2{fill:#EBEBEB;}
	.st3{fill:#FAFAFA;}
	.st4{opacity:0.3;}
	.st5{fill:#FFFFFF;}
	.st6{display:none;}
	.st7{display:inline;fill:#F5F5F5;}
	.st8{fill:#263238;}
	.st9{fill:#FF725E;}
	.st10{fill:#455A64;}
	.st11{fill:#FFBE9D;}
	.st12{fill:#EB996E;}
	.st13{opacity:0.6;}
</style>
<g id="Background_Complete">
	<path class="st0" d="M298.66,471.25c0,2.74-17.44,4.96-38.96,4.96c-21.52,0-38.96-2.22-38.96-4.96c0-2.74,17.44-4.96,38.96-4.96
		C281.22,466.29,298.66,468.51,298.66,471.25z"/>
	<g>
		<g>
			<path class="st1" d="M183.01,150.18c3.26-1.97,6.73-3.46,10.31-4.48l2.12-10.21l17.24-0.3l2.48,10.12
				c3.61,0.89,7.14,2.26,10.46,4.12l8.71-5.71l12.41,11.98l-5.4,8.91c1.97,3.26,3.46,6.73,4.48,10.31l10.21,2.12l0.3,17.24
				l-10.12,2.48c-0.89,3.61-2.26,7.13-4.12,10.46l5.71,8.72l-11.98,12.41l-8.91-5.4c-3.26,1.97-6.73,3.46-10.31,4.48l-2.12,10.21
				l-17.24,0.3l-2.48-10.13c-3.61-0.89-7.13-2.26-10.46-4.12l-8.71,5.71l-12.41-11.98l5.4-8.91c-1.97-3.26-3.46-6.73-4.48-10.31
				l-10.21-2.12l-0.3-17.24l10.12-2.48c0.89-3.61,2.26-7.13,4.12-10.46l-5.71-8.72l11.98-12.41L183.01,150.18L183.01,150.18z
				 M192.2,173.15c-7.1,7.35-6.89,19.06,0.46,26.16c7.35,7.1,19.06,6.89,26.16-0.46c7.1-7.35,6.89-19.06-0.46-26.16
				C211.01,165.59,199.3,165.8,192.2,173.15z"/>
		</g>
	</g>
	<g>
		<g>
			<path class="st2" d="M284.43,180.26c2.74-0.95,5.57-1.51,8.4-1.7l3.21-7.27l12.9,2.52l0.24,7.94c2.55,1.24,4.96,2.82,7.15,4.73
				l7.41-2.87l7.34,10.91l-5.44,5.78c0.95,2.74,1.51,5.57,1.7,8.4l7.27,3.21l-2.52,12.9l-7.94,0.24c-1.24,2.55-2.82,4.96-4.73,7.14
				l2.87,7.41l-10.9,7.34l-5.78-5.44c-2.74,0.95-5.57,1.51-8.4,1.7l-3.21,7.27l-12.9-2.52l-0.24-7.94
				c-2.55-1.24-4.96-2.82-7.15-4.73l-7.41,2.87l-7.34-10.9l5.44-5.78c-0.95-2.74-1.51-5.57-1.7-8.4l-7.27-3.21l2.52-12.9l7.94-0.24
				c1.24-2.55,2.82-4.96,4.73-7.14l-2.87-7.41l10.9-7.34L284.43,180.26L284.43,180.26z M287.63,198.85
				c-6.46,4.35-8.17,13.12-3.82,19.58c4.35,6.46,13.12,8.17,19.58,3.82c6.46-4.35,8.17-13.12,3.82-19.58
				C302.85,196.21,294.09,194.5,287.63,198.85z"/>
		</g>
	</g>
	<g>
		<g>
			<g>
				<path class="st0" d="M329.64,41.07c0,0,0.08,0.05,0.24,0.17c0.15,0.12,0.37,0.31,0.67,0.53c0.6,0.46,1.5,1.11,2.74,1.83
					c1.24,0.72,2.83,1.48,4.77,2.07c1.94,0.59,4.25,0.98,6.81,0.9c2.56-0.06,5.33-0.55,8.32-1c2.98-0.47,6.25-0.72,9.64-0.31
					c3.39,0.4,6.89,1.35,10.23,2.97c3.34,1.62,6.51,3.93,9.12,6.88c2.62,2.95,4.57,6.34,5.8,9.85c1.24,3.5,1.72,7.13,1.56,10.53
					c-0.12,3.41-0.6,6.61-0.69,9.61c-0.12,3.01,0.25,5.82,1.07,8.24c0.8,2.43,1.94,4.47,3.14,6.11c1.19,1.65,2.43,2.9,3.52,3.83
					c0.53,0.48,1.06,0.84,1.49,1.18c0.46,0.31,0.84,0.58,1.16,0.78c0.31,0.19,0.56,0.34,0.74,0.44c0.16,0.1,0.25,0.16,0.25,0.16
					c0,0.01-0.09-0.04-0.26-0.13c-0.18-0.1-0.43-0.24-0.75-0.42c-0.33-0.19-0.71-0.46-1.18-0.75c-0.44-0.33-0.98-0.69-1.52-1.17
					c-1.1-0.92-2.37-2.17-3.59-3.82c-1.22-1.64-2.39-3.69-3.21-6.14c-0.85-2.44-1.23-5.29-1.13-8.32c0.07-3.03,0.54-6.24,0.66-9.62
					c0.14-3.38-0.33-6.95-1.57-10.41c-1.22-3.46-3.15-6.82-5.74-9.73c-2.58-2.92-5.71-5.2-9.02-6.81
					c-3.31-1.61-6.77-2.56-10.12-2.96c-3.36-0.41-6.59-0.18-9.57,0.28c-2.98,0.44-5.77,0.92-8.35,0.96
					c-2.58,0.07-4.92-0.34-6.87-0.95c-1.95-0.62-3.55-1.4-4.78-2.14c-1.24-0.74-2.13-1.41-2.72-1.89c-0.3-0.24-0.51-0.43-0.65-0.56
					C329.71,41.14,329.64,41.07,329.64,41.07z"/>
			</g>
		</g>
		<g>
			<g>
				<path class="st0" d="M346.75,19c0,0,1.23,1.05,3.19,3.24c0.97,1.1,2.12,2.48,3.25,4.23c1.13,1.74,2.28,3.87,2.87,6.45
					c0.15,0.64,0.25,1.31,0.31,2c0.04,0.69,0.04,1.39,0.03,2.11c-0.03,1.43-0.05,2.91-0.08,4.45c-0.07,3.07-0.17,6.36-0.11,9.81
					c0.07,3.44,0.7,7.05,2.04,10.54c1.33,3.49,3.37,6.88,6.16,9.7c2.79,2.82,6.17,4.9,9.69,6.13c3.53,1.23,7.21,1.6,10.62,1.12
					c3.41-0.46,6.56-1.47,9.6-2.01c1.52-0.27,3.01-0.44,4.45-0.42c1.44,0.03,2.81,0.17,4.1,0.45c2.57,0.55,4.78,1.53,6.57,2.58
					c1.8,1.07,3.18,2.24,4.2,3.29c1.03,1.04,1.72,1.96,2.16,2.59c0.2,0.31,0.36,0.56,0.48,0.74c0.11,0.17,0.15,0.26,0.15,0.26
					s-0.07-0.08-0.18-0.24c-0.12-0.17-0.29-0.41-0.5-0.71c-0.46-0.62-1.16-1.51-2.2-2.53c-1.03-1.03-2.41-2.18-4.2-3.22
					c-1.79-1.03-3.97-1.98-6.52-2.51c-1.27-0.27-2.63-0.4-4.05-0.42c-1.42-0.01-2.89,0.16-4.4,0.44c-3.02,0.54-6.16,1.56-9.61,2.04
					c-3.45,0.5-7.19,0.13-10.77-1.11c-3.58-1.24-7-3.35-9.83-6.21c-2.83-2.86-4.89-6.29-6.23-9.82c-1.34-3.54-1.98-7.19-2.04-10.66
					c-0.05-3.46,0.06-6.75,0.14-9.82c0.04-1.54,0.07-3.02,0.1-4.45c0.02-0.71,0.02-1.41-0.02-2.09c-0.06-0.67-0.14-1.33-0.29-1.96
					c-0.57-2.54-1.69-4.65-2.8-6.4c-1.11-1.75-2.24-3.14-3.19-4.25c-0.95-1.11-1.74-1.92-2.27-2.48c-0.26-0.27-0.46-0.47-0.61-0.63
					C346.82,19.08,346.75,19,346.75,19z"/>
			</g>
		</g>
		<g>
			<g>
				<path class="st0" d="M356.28,35.88c0.07,0.06-1.93,2.57-4.47,5.61c-2.54,3.04-4.66,5.45-4.73,5.39
					c-0.07-0.06,1.93-2.57,4.47-5.61C354.09,38.23,356.21,35.82,356.28,35.88z"/>
			</g>
		</g>
		<g>
			<g>
				<path class="st0" d="M354.56,29.51c0.07,0.07-3.42,3.71-7.8,8.15c-4.37,4.43-7.97,7.97-8.04,7.91c-0.07-0.07,3.42-3.71,7.8-8.15
					C350.9,32.98,354.49,29.44,354.56,29.51z"/>
			</g>
		</g>
		<g>
			<g>
				<path class="st0" d="M350.99,23.6c0.07,0.07-4.17,4.41-9.46,9.7c-5.29,5.29-9.63,9.53-9.7,9.46c-0.07-0.07,4.17-4.41,9.46-9.7
					C346.58,27.77,350.93,23.53,350.99,23.6z"/>
			</g>
		</g>
		<g>
			<g>
				<path class="st0" d="M388.96,69.36c0.06,0.07-2.41,2.3-5.52,4.97c-3.11,2.68-5.68,4.79-5.74,4.71c-0.06-0.07,2.41-2.3,5.52-4.97
					C386.33,71.39,388.9,69.28,388.96,69.36z"/>
			</g>
		</g>
		<g>
			<g>
				<path class="st0" d="M385.67,60.6c0.02,0.02-0.19,0.25-0.57,0.64c-0.38,0.4-0.95,0.97-1.66,1.66c-1.42,1.38-3.43,3.25-5.7,5.25
					c-2.27,2-4.39,3.74-5.94,4.98c-0.78,0.62-1.41,1.11-1.86,1.44c-0.44,0.33-0.7,0.51-0.71,0.49s0.21-0.23,0.63-0.59
					c0.47-0.4,1.07-0.91,1.79-1.52c1.51-1.28,3.6-3.05,5.87-5.05c2.27-1.99,4.29-3.83,5.76-5.17c0.69-0.63,1.28-1.16,1.74-1.58
					C385.41,60.78,385.65,60.59,385.67,60.6z"/>
			</g>
		</g>
		<g>
			<g>
				<path class="st0" d="M380.61,53.88c0.01,0.02-0.24,0.24-0.72,0.64c-0.53,0.43-1.21,0.99-2.03,1.66
					c-1.72,1.4-4.07,3.35-6.61,5.58c-2.54,2.23-4.78,4.31-6.38,5.84c-0.77,0.73-1.41,1.34-1.9,1.81c-0.45,0.42-0.71,0.65-0.73,0.64
					c-0.02-0.02,0.21-0.28,0.63-0.73c0.42-0.46,1.05-1.1,1.83-1.88c1.57-1.57,3.78-3.69,6.33-5.92c2.54-2.23,4.93-4.16,6.68-5.51
					c0.88-0.68,1.6-1.21,2.1-1.57C380.31,54.05,380.6,53.86,380.61,53.88z"/>
			</g>
		</g>
		<g>
			<g>
				<path class="st0" d="M372.24,49.32c0.02,0.02-0.17,0.21-0.52,0.54c-0.41,0.37-0.9,0.83-1.49,1.37c-1.26,1.15-3,2.75-4.88,4.56
					c-1.88,1.8-3.56,3.46-4.77,4.67c-0.57,0.56-1.05,1.04-1.44,1.43c-0.34,0.33-0.54,0.51-0.56,0.49c-0.02-0.02,0.15-0.22,0.46-0.59
					c0.31-0.36,0.78-0.88,1.36-1.5c1.17-1.25,2.82-2.94,4.71-4.75c1.89-1.8,3.65-3.38,4.96-4.49c0.65-0.56,1.19-1,1.56-1.29
					C372.01,49.46,372.22,49.31,372.24,49.32z"/>
			</g>
		</g>
		<g>
			<g>
				<path class="st0" d="M365.75,45.74c0.06,0.07-1.98,2.07-4.55,4.47c-2.58,2.4-4.72,4.29-4.79,4.22
					c-0.06-0.07,1.97-2.07,4.55-4.47C363.55,47.56,365.69,45.67,365.75,45.74z"/>
			</g>
		</g>
		<g>
			<g>
				<path class="st0" d="M401.45,76.49c0.02,0.02-0.15,0.19-0.46,0.49c-0.37,0.35-0.82,0.76-1.33,1.24c-1.2,1.1-2.73,2.52-4.42,4.08
					c-1.68,1.58-3.2,3-4.39,4.11c-0.52,0.48-0.97,0.9-1.34,1.24c-0.32,0.29-0.5,0.44-0.52,0.42c-0.02-0.02,0.14-0.2,0.43-0.52
					c0.29-0.32,0.72-0.77,1.26-1.32c1.08-1.1,2.6-2.59,4.32-4.19c1.72-1.6,3.32-3.01,4.49-4.01c0.59-0.5,1.07-0.9,1.41-1.16
					C401.24,76.61,401.43,76.47,401.45,76.49z"/>
			</g>
		</g>
		<g>
			<g>
				<path class="st0" d="M409.61,79.57c0.06,0.07-4.02,3.98-9.13,8.74c-5.11,4.76-9.3,8.56-9.36,8.49
					c-0.06-0.07,4.02-3.98,9.13-8.74C405.35,83.3,409.54,79.5,409.61,79.57z"/>
			</g>
		</g>
		<g>
			<g>
				<path class="st0" d="M415.22,82.71c0.07,0.07-4.33,4.52-9.83,9.95c-5.5,5.43-10,9.78-10.07,9.71c-0.07-0.07,4.33-4.52,9.83-9.96
					C410.65,86.99,415.16,82.64,415.22,82.71z"/>
			</g>
		</g>
	</g>
	<g>
		<g>
			<g>
				<g>
					<g>
						<g>
							<path class="st0" d="M423,377.09c0,0,0.06-0.14,0.19-0.41c0.03-0.07,0.07-0.14,0.11-0.22c0.04-0.08,0.06-0.18,0.1-0.29
								c0.07-0.21,0.16-0.45,0.2-0.73c0.03-0.14,0.06-0.29,0.08-0.45c0.01-0.16,0.02-0.33,0.04-0.51c0.02-0.18,0.01-0.36,0-0.56
								c-0.01-0.19,0-0.4-0.04-0.61c-0.07-0.84-0.32-1.79-0.7-2.82c-0.75-2.07-2.15-4.4-4.08-6.85c-1.92-2.46-4.41-5.02-7.36-7.63
								c-2.95-2.6-6.39-5.21-10.25-7.75c-3.87-2.54-8.16-5-12.87-7.21c-2.35-1.1-4.81-2.14-7.37-3.06
								c-2.56-0.93-5.22-1.74-7.98-2.36c-2.76-0.6-5.62-1.03-8.54-0.93c-1.45,0.06-2.92,0.25-4.31,0.74
								c-0.69,0.25-1.35,0.58-1.95,1.01c-0.59,0.45-1.1,0.99-1.49,1.62c-0.36,0.64-0.59,1.35-0.7,2.08
								c-0.08,0.73-0.06,1.47,0.06,2.2c0.23,1.45,0.79,2.83,1.43,4.13c1.32,2.6,3.09,4.9,4.95,7.02c1.87,2.12,3.87,4.05,5.93,5.84
								c2.05,1.79,4.15,3.44,6.25,4.96c4.21,3.05,8.45,5.61,12.54,7.77c4.09,2.15,8.04,3.89,11.75,5.21
								c3.7,1.32,7.15,2.25,10.23,2.74c3.08,0.5,5.8,0.59,7.97,0.25c1.08-0.17,2.03-0.42,2.81-0.76c0.2-0.07,0.37-0.18,0.55-0.26
								c0.17-0.09,0.34-0.17,0.49-0.27c0.15-0.1,0.29-0.19,0.43-0.28c0.13-0.1,0.24-0.2,0.35-0.29c0.23-0.18,0.4-0.37,0.54-0.53
								c0.07-0.08,0.15-0.15,0.2-0.22c0.05-0.08,0.1-0.14,0.14-0.2C422.9,377.22,423,377.09,423,377.09s-0.08,0.13-0.25,0.38
								c-0.04,0.06-0.09,0.13-0.14,0.21c-0.06,0.07-0.13,0.15-0.2,0.23c-0.15,0.16-0.31,0.36-0.54,0.54
								c-0.11,0.09-0.23,0.2-0.35,0.3c-0.14,0.09-0.28,0.18-0.43,0.28c-0.15,0.11-0.31,0.19-0.49,0.28
								c-0.18,0.08-0.35,0.2-0.55,0.27c-0.78,0.35-1.73,0.6-2.82,0.78c-2.18,0.35-4.91,0.27-8-0.22c-3.09-0.48-6.55-1.41-10.26-2.72
								c-3.71-1.31-7.67-3.05-11.77-5.2c-4.1-2.15-8.35-4.71-12.57-7.76c-2.11-1.53-4.21-3.18-6.27-4.97
								c-2.06-1.79-4.06-3.73-5.94-5.85c-1.87-2.13-3.64-4.44-4.97-7.06c-0.65-1.31-1.21-2.7-1.45-4.18
								c-0.12-0.74-0.15-1.5-0.06-2.25c0.11-0.75,0.34-1.48,0.72-2.15c0.4-0.65,0.93-1.21,1.53-1.67c0.62-0.44,1.29-0.78,2-1.03
								c1.41-0.51,2.9-0.69,4.36-0.75c2.94-0.1,5.82,0.33,8.58,0.93c2.77,0.62,5.44,1.43,8,2.37c2.56,0.93,5.02,1.97,7.38,3.07
								c4.71,2.22,9.01,4.69,12.88,7.23c3.87,2.55,7.31,5.17,10.25,7.78c2.95,2.61,5.43,5.19,7.35,7.66
								c1.92,2.47,3.32,4.81,4.07,6.89c0.37,1.04,0.61,1.99,0.68,2.84c0.03,0.21,0.02,0.42,0.03,0.61c0.01,0.2,0.01,0.38-0.01,0.56
								c-0.01,0.18-0.03,0.35-0.04,0.51c-0.02,0.16-0.06,0.31-0.09,0.45c-0.04,0.29-0.14,0.53-0.21,0.74
								c-0.04,0.1-0.07,0.2-0.1,0.29c-0.04,0.08-0.08,0.16-0.11,0.22C423.07,376.96,423,377.09,423,377.09z"/>
						</g>
					</g>
				</g>
				<g>
					<g>
						<g>
							<path class="st0" d="M428.42,349.92c0,0-0.05-0.15-0.13-0.43c-0.02-0.07-0.04-0.15-0.07-0.24c-0.03-0.09-0.08-0.18-0.12-0.28
								c-0.09-0.2-0.18-0.44-0.34-0.68c-0.08-0.12-0.15-0.26-0.24-0.39c-0.1-0.13-0.2-0.26-0.31-0.4c-0.1-0.15-0.23-0.28-0.37-0.42
								c-0.14-0.14-0.27-0.3-0.43-0.43c-0.62-0.58-1.43-1.13-2.4-1.64c-1.94-1.04-4.54-1.85-7.61-2.4
								c-3.07-0.56-6.64-0.81-10.57-0.8c-3.93,0.02-8.24,0.36-12.81,1.04c-4.57,0.68-9.42,1.7-14.4,3.18
								c-2.49,0.74-5.01,1.61-7.54,2.62c-2.53,1.01-5.05,2.17-7.52,3.55c-2.46,1.39-4.88,2.98-6.99,4.99
								c-1.04,1.01-2.02,2.13-2.72,3.42c-0.35,0.65-0.62,1.34-0.78,2.05c-0.14,0.72-0.16,1.47-0.03,2.2
								c0.16,0.72,0.46,1.4,0.87,2.02c0.43,0.6,0.94,1.14,1.51,1.6c1.14,0.93,2.47,1.59,3.82,2.13c2.72,1.06,5.57,1.6,8.37,1.95
								c2.81,0.33,5.59,0.45,8.31,0.41c2.72-0.03,5.38-0.19,7.97-0.46c5.17-0.53,10.04-1.44,14.53-2.55
								c4.49-1.12,8.59-2.45,12.24-3.93c3.64-1.48,6.83-3.08,9.46-4.77c2.63-1.68,4.72-3.42,6.11-5.12
								c0.69-0.85,1.24-1.67,1.59-2.44c0.1-0.19,0.16-0.38,0.23-0.56c0.07-0.18,0.14-0.35,0.18-0.53c0.05-0.17,0.09-0.34,0.13-0.49
								c0.03-0.16,0.05-0.31,0.07-0.45c0.06-0.28,0.05-0.54,0.05-0.76c0-0.11,0.01-0.21,0-0.3c-0.01-0.09-0.02-0.17-0.03-0.25
								C428.43,350.08,428.42,349.92,428.42,349.92s0.03,0.15,0.07,0.44c0.01,0.07,0.02,0.16,0.03,0.25c0.01,0.09,0,0.19,0,0.3
								c0,0.22,0.01,0.48-0.04,0.76c-0.02,0.14-0.04,0.3-0.07,0.46c-0.04,0.16-0.08,0.32-0.13,0.5c-0.04,0.18-0.11,0.35-0.18,0.53
								c-0.08,0.18-0.13,0.38-0.23,0.57c-0.35,0.78-0.89,1.6-1.58,2.46c-1.39,1.72-3.48,3.47-6.11,5.16
								c-2.63,1.7-5.83,3.31-9.47,4.8c-3.64,1.49-7.76,2.83-12.25,3.96c-4.49,1.12-9.37,2.04-14.55,2.57
								c-2.59,0.27-5.26,0.43-7.98,0.46c-2.73,0.03-5.51-0.08-8.33-0.41c-2.81-0.35-5.67-0.89-8.41-1.96
								c-1.36-0.54-2.7-1.21-3.87-2.15c-0.58-0.47-1.1-1.02-1.54-1.64c-0.42-0.63-0.73-1.33-0.89-2.08
								c-0.14-0.75-0.11-1.52,0.03-2.26c0.17-0.74,0.45-1.44,0.8-2.1c0.71-1.32,1.7-2.44,2.75-3.46c2.12-2.03,4.56-3.63,7.02-5.02
								c2.48-1.38,5.01-2.55,7.54-3.56c2.53-1.01,5.06-1.88,7.55-2.62c4.99-1.48,9.85-2.5,14.43-3.17
								c4.58-0.67,8.89-1.01,12.83-1.02c3.94-0.01,7.5,0.26,10.58,0.82c3.08,0.56,5.68,1.38,7.62,2.43c0.97,0.53,1.79,1.08,2.4,1.67
								c0.17,0.13,0.29,0.3,0.43,0.44c0.14,0.14,0.27,0.28,0.37,0.43c0.11,0.14,0.21,0.28,0.31,0.41c0.09,0.14,0.16,0.27,0.24,0.4
								c0.16,0.24,0.25,0.49,0.33,0.69c0.04,0.1,0.08,0.19,0.11,0.28c0.02,0.09,0.04,0.17,0.06,0.24
								C428.38,349.78,428.42,349.92,428.42,349.92z"/>
						</g>
					</g>
				</g>
				<g>
					<g>
						<g>
							<path class="st0" d="M408.44,321.41c0,0-0.14-0.05-0.42-0.16c-0.07-0.03-0.15-0.06-0.23-0.09c-0.09-0.03-0.19-0.05-0.29-0.08
								c-0.21-0.05-0.46-0.13-0.75-0.15c-0.14-0.02-0.29-0.04-0.46-0.05c-0.16,0-0.33,0-0.51,0c-0.18-0.01-0.36,0.01-0.56,0.03
								c-0.19,0.03-0.4,0.03-0.6,0.08c-0.84,0.13-1.77,0.44-2.77,0.89c-2.01,0.89-4.24,2.45-6.55,4.54
								c-2.32,2.09-4.71,4.75-7.1,7.86c-2.39,3.12-4.76,6.73-7.03,10.76c-2.26,4.03-4.43,8.49-6.31,13.33
								c-0.94,2.42-1.8,4.95-2.55,7.56c-0.75,2.61-1.38,5.33-1.8,8.12c-0.41,2.79-0.64,5.68-0.33,8.58c0.16,1.44,0.45,2.9,1.04,4.25
								c0.3,0.67,0.68,1.31,1.14,1.88c0.48,0.55,1.06,1.03,1.71,1.37c0.67,0.32,1.39,0.5,2.13,0.55c0.74,0.03,1.47-0.05,2.19-0.21
								c1.43-0.33,2.77-0.98,4.02-1.71c2.5-1.5,4.68-3.42,6.67-5.42c1.98-2.02,3.78-4.14,5.42-6.31c1.64-2.17,3.14-4.37,4.52-6.58
								c2.75-4.41,5.02-8.82,6.88-13.05c1.86-4.23,3.33-8.29,4.39-12.08c1.06-3.79,1.75-7.29,2.03-10.4
								c0.28-3.11,0.19-5.82-0.3-7.97c-0.24-1.07-0.56-2-0.95-2.75c-0.08-0.19-0.21-0.36-0.3-0.53c-0.1-0.17-0.19-0.33-0.31-0.47
								c-0.11-0.14-0.21-0.28-0.31-0.41c-0.11-0.12-0.22-0.23-0.32-0.33c-0.19-0.22-0.4-0.37-0.57-0.51
								c-0.09-0.07-0.16-0.13-0.24-0.19c-0.08-0.05-0.15-0.09-0.21-0.13C408.56,321.49,408.44,321.41,408.44,321.41
								s0.13,0.07,0.39,0.22c0.06,0.04,0.14,0.08,0.22,0.13c0.08,0.05,0.15,0.12,0.24,0.18c0.17,0.14,0.38,0.29,0.58,0.5
								c0.1,0.1,0.21,0.21,0.32,0.33c0.1,0.13,0.2,0.26,0.31,0.41c0.12,0.14,0.21,0.3,0.31,0.47c0.1,0.17,0.22,0.34,0.31,0.53
								c0.4,0.75,0.72,1.69,0.97,2.76c0.5,2.15,0.6,4.88,0.33,7.99c-0.27,3.12-0.95,6.63-2.01,10.42c-1.05,3.79-2.52,7.86-4.38,12.1
								c-1.86,4.24-4.13,8.65-6.88,13.07c-1.38,2.21-2.88,4.42-4.52,6.59c-1.64,2.18-3.44,4.31-5.43,6.33
								c-1.99,2.01-4.18,3.94-6.7,5.45c-1.26,0.74-2.61,1.4-4.07,1.73c-0.73,0.17-1.48,0.25-2.24,0.22
								c-0.75-0.06-1.5-0.24-2.19-0.57c-0.68-0.35-1.27-0.84-1.77-1.41c-0.48-0.58-0.87-1.24-1.17-1.92
								c-0.6-1.37-0.89-2.84-1.05-4.3c-0.31-2.92-0.07-5.83,0.34-8.63c0.42-2.8,1.05-5.52,1.81-8.14c0.75-2.62,1.62-5.15,2.56-7.57
								c1.89-4.85,4.06-9.31,6.33-13.35c2.28-4.03,4.65-7.64,7.06-10.76c2.4-3.12,4.8-5.77,7.13-7.86c2.33-2.09,4.57-3.64,6.59-4.53
								c1.01-0.44,1.95-0.75,2.79-0.88c0.21-0.05,0.41-0.05,0.61-0.07c0.19-0.02,0.38-0.04,0.56-0.03c0.18,0,0.35,0,0.51,0.01
								c0.16,0.01,0.31,0.04,0.46,0.06c0.29,0.02,0.54,0.1,0.75,0.16c0.11,0.03,0.21,0.05,0.29,0.08c0.08,0.04,0.16,0.07,0.23,0.1
								C408.3,321.34,408.44,321.41,408.44,321.41z"/>
						</g>
					</g>
				</g>
				<g>
					<g>
						<path class="st0" d="M355.65,380.54c0.66,0.44,0.83,1.33,0.39,1.98c-0.44,0.66-1.33,0.83-1.98,0.39
							c-0.66-0.44-0.83-1.33-0.39-1.98C354.11,380.28,355,380.1,355.65,380.54z"/>
					</g>
				</g>
				<g>
					<g>
						<path class="st0" d="M426.08,321.45c0.15,0.77-0.35,1.53-1.12,1.68c-0.77,0.15-1.53-0.35-1.68-1.12
							c-0.15-0.77,0.35-1.53,1.12-1.68C425.18,320.17,425.93,320.68,426.08,321.45z"/>
					</g>
				</g>
				<g>
					<g>
						<path class="st0" d="M365.41,383.39c0.04,0.2-0.09,0.39-0.29,0.43c-0.2,0.04-0.39-0.09-0.43-0.29
							c-0.04-0.2,0.09-0.39,0.29-0.43C365.18,383.07,365.37,383.19,365.41,383.39z"/>
					</g>
				</g>
				<g>
					<g>
						<path class="st0" d="M365.22,342.63c0.04,0.2-0.09,0.39-0.29,0.43c-0.2,0.04-0.39-0.09-0.43-0.29
							c-0.04-0.2,0.09-0.39,0.29-0.43C364.99,342.3,365.18,342.43,365.22,342.63z"/>
					</g>
				</g>
				<g>
					<g>
						<path class="st0" d="M424.57,350.69c0.04,0.2-0.09,0.39-0.29,0.43c-0.2,0.04-0.39-0.09-0.43-0.29
							c-0.04-0.2,0.09-0.39,0.29-0.43C424.34,350.36,424.53,350.49,424.57,350.69z"/>
					</g>
				</g>
				<g>
					<g>
						<path class="st0" d="M426.22,333.11c0.04,0.2-0.09,0.39-0.29,0.43c-0.2,0.04-0.39-0.09-0.43-0.29s0.09-0.39,0.29-0.43
							C425.99,332.78,426.18,332.91,426.22,333.11z"/>
					</g>
				</g>
			</g>
		</g>
		
			<ellipse transform="matrix(0.4584 -0.8888 0.8888 0.4584 -106.0461 540.7519)" class="st0" cx="390.65" cy="357.38" rx="6.95" ry="6.95"/>
	</g>
	<path class="st1" d="M345.64,134.81c-3.04-7.95-7.64-15.15-13.63-21.26c-10.32-10.53-22.07-19.86-35.36-26.39
		c-13.3-6.54-34.98-12.34-50.77-12.26c-8.15-0.31-12.27,0.2-19.69,3.06c-4.64,1.79-8.53,5.92-8.85,10.81
		c-0.3,4.53,2.5,10.1,6.24,12.74c16.08,11.33,28.26,11.93,43.86,16.92c15.59,4.99,31.64,12.38,40.05,26.26
		c4.56,7.53,7.17,17.16,15.09,21.16c7.68,3.87,17.81,0.11,22.51-7.01C349.8,151.72,348.68,142.76,345.64,134.81z"/>
	<g>
		<path class="st0" d="M131.84,277.09c0,0-0.39,0.23-1.16,0.65c-0.77,0.43-1.94,1.02-3.42,1.9c-2.98,1.7-7.33,4.32-12.58,8.19
			c-5.24,3.87-11.41,8.98-17.75,15.74c-3.17,3.38-6.37,7.16-9.5,11.37c-3.15,4.19-6.11,8.91-8.63,14.16
			c-1.21,2.64-2.33,5.41-3.21,8.32c-0.85,2.92-1.49,5.97-1.78,9.13c-0.27,3.16-0.12,6.41,0.51,9.64c0.28,1.62,0.8,3.2,1.32,4.79
			c0.6,1.56,1.29,3.11,2.15,4.58c3.38,5.93,8.72,10.91,15.03,14.51c6.32,3.62,13.62,5.81,21.19,7.07c3.8,0.63,7.67,1.06,11.61,1.36
			c1.97,0.17,3.95,0.23,5.94,0.32c1.99,0.09,4,0.17,6.01,0.26c2.01,0.13,4.04,0.08,6.08,0.08c2.04-0.01,4.09-0.01,6.14-0.02
			c2.06,0.04,4.12-0.13,6.2-0.21c2.08-0.1,4.16-0.19,6.25-0.29c16.74-1.01,33.96-3.68,51.29-7.7c34.7-8.06,66.41-20.62,94.33-33.65
			c13.98-6.47,27.07-13.23,38.09-21.39c5.51-4.06,10.44-8.52,14.66-13.27c0.52-0.6,1.05-1.19,1.56-1.78
			c0.51-0.59,0.97-1.23,1.46-1.83c0.48-0.61,0.96-1.22,1.43-1.83c0.44-0.63,0.88-1.26,1.31-1.89c1.8-2.46,3.27-5.06,4.47-7.71
			c2.37-5.29,3.72-10.8,3.5-16.03c-0.22-5.21-2.21-10.06-5.54-13.26c-3.3-3.24-7.48-4.88-11.34-5.6c-3.9-0.72-7.56-0.54-10.76,0.01
			c-3.21,0.54-5.99,1.38-8.36,2.2c-2.37,0.83-4.33,1.64-5.92,2.3c-1.57,0.68-2.77,1.19-3.59,1.54c-0.81,0.35-1.23,0.52-1.23,0.52
			s0.4-0.2,1.2-0.57c0.8-0.36,1.99-0.91,3.57-1.59c1.58-0.68,3.54-1.51,5.91-2.35c2.37-0.84,5.15-1.7,8.38-2.26
			c3.21-0.57,6.91-0.76,10.84-0.05c3.89,0.72,8.13,2.35,11.5,5.64c3.4,3.24,5.44,8.18,5.67,13.46c0.24,5.3-1.12,10.87-3.5,16.2
			c-1.2,2.67-2.68,5.3-4.48,7.77c-0.44,0.63-0.87,1.26-1.31,1.9c-0.48,0.61-0.95,1.22-1.44,1.84c-0.49,0.61-0.95,1.25-1.47,1.85
			c-0.52,0.59-1.04,1.19-1.57,1.79c-4.23,4.78-9.18,9.26-14.71,13.35c-11.05,8.21-24.16,15-38.14,21.48
			c-27.93,13.07-59.67,25.65-94.41,33.73c-34.67,8.11-69.09,10.38-99.72,6.15c-7.61-1.28-14.96-3.48-21.34-7.15
			c-6.36-3.63-11.76-8.67-15.18-14.69c-0.87-1.49-1.57-3.06-2.17-4.65c-0.53-1.61-1.05-3.21-1.33-4.86
			c-0.63-3.27-0.78-6.56-0.5-9.75c0.3-3.19,0.95-6.26,1.81-9.2c0.89-2.93,2.03-5.71,3.25-8.37c2.54-5.27,5.52-10,8.7-14.2
			c3.15-4.22,6.37-8,9.56-11.37c6.37-6.76,12.57-11.86,17.84-15.7c5.28-3.85,9.65-6.44,12.65-8.11
			C130.21,277.87,131.84,277.09,131.84,277.09z"/>
	</g>
	<g>
		<g>
			<path class="st2" d="M422.24,188.57l-12.52,46.04l-38.01,10.51c-1.23,0.34-1.99,1.68-1.73,3.07l0,0l41.58-10.7l1.47-0.46
				l49.3-13.2L467.8,202l7.11-25.6c0.52-1.56-0.77-3.15-2.22-2.75l-49.13,13.49C422.92,187.32,422.42,187.86,422.24,188.57z"/>
		</g>
		<polygon class="st3" points="424.8,190.05 413.42,231.98 458.08,219.72 468.07,178.4 		"/>
		<g>
			<path class="st0" d="M472.69,173.65c0.01,0,0,0.08-0.04,0.24c-0.04,0.19-0.09,0.42-0.16,0.71c-0.16,0.65-0.37,1.56-0.65,2.71
				c-0.6,2.39-1.44,5.8-2.5,10.03c-2.17,8.54-5.18,20.38-8.59,33.75l-0.04,0.15l-0.15,0.04c-2.29,0.62-4.7,1.27-7.15,1.93
				c-15.02,4.01-28.61,7.63-38.49,10.27c-4.9,1.28-8.88,2.32-11.68,3.05c-1.35,0.34-2.42,0.61-3.18,0.81
				c-0.34,0.08-0.62,0.15-0.83,0.2c-0.19,0.04-0.29,0.06-0.29,0.05c0-0.01,0.09-0.04,0.27-0.1c0.21-0.06,0.48-0.15,0.82-0.25
				c0.76-0.22,1.81-0.52,3.16-0.9c2.78-0.77,6.75-1.87,11.64-3.21c9.87-2.67,23.45-6.35,38.45-10.42c2.45-0.66,4.86-1.31,7.15-1.92
				l-0.18,0.18c3.47-13.36,6.54-25.18,8.75-33.71c1.12-4.21,2.02-7.61,2.65-9.99c0.31-1.14,0.56-2.04,0.74-2.69
				c0.08-0.28,0.15-0.51,0.2-0.69C472.66,173.72,472.68,173.65,472.69,173.65z"/>
		</g>
	</g>
	<g>
		<g>
			<g>
				<g>
					<g>
						<g>
							
								<ellipse transform="matrix(0.8626 -0.5058 0.5058 0.8626 -160.1787 111.0724)" class="st2" cx="124.42" cy="350.45" rx="18.88" ry="18.88"/>
						</g>
					</g>
				</g>
			</g>
			<g class="st4">
				<g>
					<g>
						<g>
							<path class="st5" d="M118.06,351.07c-1.5,0.8-3.37,0.24-4.17-1.26c-0.8-1.5-0.24-3.37,1.26-4.17c1.5-0.8,3.37-0.24,4.17,1.26
								C120.12,348.4,119.56,350.27,118.06,351.07z"/>
						</g>
					</g>
				</g>
			</g>
			<g class="st4">
				<g>
					<g>
						<g>
							<path class="st5" d="M123.83,343.03c-0.87,0.47-1.96,0.14-2.42-0.73c-0.47-0.87-0.14-1.96,0.73-2.42
								c0.87-0.47,1.96-0.14,2.42,0.73C125.03,341.47,124.7,342.56,123.83,343.03z"/>
						</g>
					</g>
				</g>
			</g>
		</g>
		<g>
			<g>
				<g>
					<g>
						<path class="st0" d="M111.72,336.48c-0.25,0.23-21.66-6.73-22.61-1.47c-0.95,5.26,14.88,16.76,32.66,24.27
							c17.78,7.51,37.24,12.65,38.9,7.5c1.66-5.15-17.37-16.24-17.37-16.24l-0.2,2.65c0,0,11.77,6.56,10.98,11.06
							c-0.8,4.5-15.35,0.69-31.46-7.06s-29.22-16.55-27.7-19.83c1.52-3.27,14.84,1.19,14.84,1.19L111.72,336.48z"/>
					</g>
				</g>
			</g>
		</g>
		<g class="st4">
			<g>
				<g>
					<g>
						<g>
							<path class="st5" d="M131.23,335c-0.09,0.22-1.65-0.39-4.26-0.64c-2.58-0.26-6.29,0.01-9.81,1.79
								c-3.51,1.8-5.91,4.65-7.21,6.89c-1.33,2.26-1.75,3.88-1.98,3.82c-0.16-0.02-0.11-1.77,1.06-4.31
								c0.58-1.26,1.47-2.68,2.71-4.05c1.23-1.37,2.84-2.67,4.75-3.66c1.92-0.97,3.91-1.51,5.75-1.7c1.84-0.2,3.51-0.08,4.87,0.19
								C129.85,333.88,131.3,334.86,131.23,335z"/>
						</g>
					</g>
				</g>
			</g>
		</g>
	</g>
	<g>
		<g>
			<g>
				<g>
					<g>
						<g>
							<g>
								<path class="st1" d="M104.08,51.87l0.97,4.48c0.38,1.77-0.18,3.61-1.5,4.86L73.5,89.67c-3.65,3.46-2.95,9.45,1.39,11.98
									l19,11.05c4.64,2.7,10.56,0.13,11.77-5.1l9.27-40.19c0.42-1.84,1.82-3.31,3.64-3.82l3.83-1.08L104.08,51.87z"/>
							</g>
						</g>
					</g>
				</g>
			</g>
			<g>
				<g>
					<g>
						<g>
							<path class="st0" d="M109.74,83.51c-2.12-0.66-4.07-1.85-5.62-3.43c-1.5-1.53-2.61-3.4-4.03-5.01c-1.42-1.61-3.3-3-5.44-3.09
								L75.91,90.34c-3.02,2.96-2.39,7.98,1.26,10.1l17.03,9.9c3.65,2.12,8.31,0.2,9.4-3.88L109.74,83.51z"/>
						</g>
					</g>
				</g>
			</g>
			<g class="st4">
				<g>
					<g>
						<g>
							<g>
								<path class="st5" d="M80.6,99.6c-0.04,0.06-0.48-0.11-1.03-0.74c-0.53-0.63-1.06-1.79-1.07-3.29c0-0.74,0.11-1.57,0.42-2.4
									c0.29-0.82,0.74-1.64,1.3-2.43c1.11-1.58,2.59-2.98,4.05-4.51c5.93-6.07,10.95-10.78,11.21-10.52
									c0.26,0.26-4.33,5.38-10.26,11.45c-1.47,1.53-2.96,2.9-4.02,4.3c-0.53,0.7-0.96,1.41-1.26,2.11
									c-0.3,0.69-0.45,1.39-0.5,2.03c-0.1,1.3,0.22,2.33,0.56,2.97C80.36,99.21,80.67,99.52,80.6,99.6z"/>
							</g>
						</g>
					</g>
				</g>
			</g>
			<g>
				<g>
					<g>
						<g>
							<g>
								<path class="st3" d="M107.31,86.34c0,0.02-0.26,0-0.73-0.06c-0.47-0.06-1.14-0.15-1.97-0.33c-0.82-0.18-1.81-0.44-2.82-0.96
									c-0.5-0.26-1-0.59-1.47-0.99c-0.47-0.4-0.89-0.88-1.28-1.4c-0.78-1.04-1.39-2.1-2.04-2.99c-0.64-0.89-1.35-1.61-2.02-2.09
									c-0.67-0.49-1.32-0.72-1.77-0.83c-0.45-0.1-0.72-0.1-0.72-0.12c0-0.01,0.07-0.01,0.19-0.02c0.13-0.01,0.31,0.01,0.55,0.04
									c0.47,0.08,1.15,0.29,1.85,0.77c0.71,0.48,1.44,1.19,2.11,2.1c0.67,0.9,1.29,1.96,2.05,2.98c0.39,0.5,0.79,0.97,1.24,1.36
									c0.45,0.39,0.93,0.71,1.41,0.97c0.97,0.52,1.93,0.79,2.74,1c0.81,0.2,1.48,0.32,1.95,0.41
									C107.06,86.27,107.31,86.33,107.31,86.34z"/>
							</g>
						</g>
					</g>
				</g>
			</g>
		</g>
		<path class="st1" d="M143.54,46.9c-0.31-1.99-1.63-3.68-3.1-5.07c-2.55-2.42-5.75-4.25-9.23-4.73c-3.7-0.51-7.6,0.58-10.5,2.94
			c-2.9,2.36-4.53,5.58-4.78,9.31c-0.34,2.35,2.12,4.34,4.49,4.47c2.37,0.13,4.6-1.02,6.74-2.07c2.13-1.05,4.48-2.05,6.82-1.62
			c2.37,0.44,4.6,2.33,6.91,1.65C142.83,51.2,143.85,48.89,143.54,46.9z"/>
		<path class="st1" d="M159.23,43c-0.14-1.85-1.57-4.78-4.97-4.36c-1.4-0.03-2.91,1.73-3.28,3.09c-0.36,1.36,0.18,2.88,1.25,3.79
			c1.07,0.91,2.58,1.23,3.96,0.93C157.83,46.11,159.36,44.67,159.23,43z"/>
	</g>
	<g>
		<g>
			<path class="st0" d="M29.15,192.48l-0.52,1.39c-0.32,0.87-0.26,1.83,0.17,2.65l28.3,54.15c0.42,0.81,1.17,1.41,2.05,1.64
				l1.6,0.43c0.36,0.1,0.74,0.13,1.11,0.1l33.04-2.6c1.63-0.13,2.92-1.44,3.01-3.08l0,0c0.03-0.6-0.1-1.2-0.38-1.73l-29.96-55.93
				c-0.61-1.14-1.85-1.82-3.14-1.72l-32.46,2.55C30.69,190.46,29.59,191.29,29.15,192.48z"/>
		</g>
		<g>
			<polygon class="st3" points="31.22,191.71 61.24,247.83 95.25,245.15 65.46,189.02 			"/>
		</g>
		<g>
			<g>
				<g>
					<g>
						<g>
							<path class="st0" d="M64.7,234.29c2.56-1.09,5.53,0.1,6.62,2.66c1.09,2.56-0.1,5.53-2.66,6.62
								c-2.56,1.09-5.53-0.09-6.62-2.66C60.95,238.35,62.14,235.38,64.7,234.29z"/>
						</g>
					</g>
				</g>
			</g>
			<g>
				<g>
					<path class="st5" d="M66.73,236.57l-0.14,0.91c-0.02,0.11,0.05,0.22,0.15,0.26l0.17,0.07c0,0,0.31,0.08,0.21,0.36
						c-0.07,0.2-0.58,1.45-0.58,1.45s-0.13,0.33-0.38,0.22l-0.25-0.1c-0.09-0.03-0.18-0.01-0.24,0.06l-0.64,0.8
						c-0.07,0.08-0.06,0.21,0.02,0.28l0.23,0.23c0.04,0.04,0.09,0.07,0.15,0.09c0.11,0.04,0.3,0.06,0.48,0.01
						c0.3-0.09,1.19-0.72,1.76-2.36c0.54-1.57,0.03-2.16-0.09-2.31c-0.07-0.09-0.3-0.2-0.42-0.2c-0.04,0-0.12,0-0.19,0
						C66.85,236.36,66.75,236.45,66.73,236.57z"/>
				</g>
			</g>
		</g>
		<g>
			<g>
				<g>
					<g>
						<g>
							<path class="st0" d="M77.9,240.71c-2.12-1.81-2.37-4.99-0.56-7.11c1.81-2.12,4.99-2.37,7.11-0.56
								c2.12,1.81,2.37,4.99,0.56,7.11C83.21,242.27,80.02,242.52,77.9,240.71z"/>
						</g>
					</g>
				</g>
			</g>
			<g>
				<g>
					<path class="st5" d="M79.04,237.88l0.88-0.28c0.11-0.03,0.18-0.14,0.17-0.25l-0.01-0.18c0,0-0.06-0.31,0.23-0.35
						c0.21-0.03,1.56-0.12,1.56-0.12s0.35-0.03,0.37,0.25l0.02,0.27c0.01,0.09,0.07,0.17,0.16,0.19l1,0.22
						c0.11,0.02,0.21-0.04,0.25-0.14l0.1-0.31c0.02-0.06,0.02-0.12,0.02-0.18c-0.02-0.12-0.08-0.3-0.2-0.44
						c-0.21-0.23-1.17-0.75-2.89-0.52c-1.64,0.21-1.95,0.93-2.03,1.11c-0.05,0.11-0.05,0.36,0.01,0.47c0.02,0.04,0.05,0.1,0.09,0.17
						C78.8,237.86,78.93,237.91,79.04,237.88z"/>
				</g>
			</g>
		</g>
		<g>
			<g>
				<path class="st2" d="M63.38,212.67c1.27-0.89,1.65-2.68,0.79-4.6c-1.14-2.51-3.98-4.27-6.34-3.94
					c-2.36,0.34-3.35,2.64-2.21,5.15c0.88,1.93,2.77,3.41,4.67,3.84c-6.1,1.95-2.52,9.03-2.52,9.03l16.73-1.31
					C74.49,220.84,70.33,212.69,63.38,212.67z"/>
			</g>
		</g>
		<g>
			<g>
				<path class="st2" d="M83.13,226.52c0.02,0.26-6,0.95-13.45,1.54c-7.45,0.59-13.51,0.85-13.53,0.58c-0.02-0.26,6-0.95,13.46-1.54
					C77.05,226.52,83.11,226.26,83.13,226.52z"/>
			</g>
		</g>
	</g>
	<g>
		<g>
			<g>
				<g>
					<g>
						<g>
							<path class="st2" d="M91.12,418.38l1.1,1.82c1.23,2.04,3.02,3.69,5.16,4.75l1.9,0.94l-1.82,1.1
								c-2.04,1.23-3.69,3.02-4.75,5.16l-0.94,1.9l-1.1-1.82c-1.23-2.04-3.02-3.69-5.16-4.75l-1.91-0.94l1.82-1.1
								c2.04-1.23,3.69-3.02,4.75-5.16L91.12,418.38z"/>
						</g>
					</g>
				</g>
			</g>
		</g>
	</g>
	<g>
		<g>
			<g>
				<g>
					<g>
						<g>
							<path class="st2" d="M443.85,60.61l1.06,1c1.19,1.12,2.95,2.01,5.07,2.56l1.89,0.49l-1.84,0.65
								c-2.07,0.72-3.74,1.76-4.84,2.97l-0.98,1.08l-1.06-1c-1.19-1.12-2.95-2.01-5.07-2.56l-1.89-0.49l1.84-0.65
								c2.06-0.72,3.74-1.76,4.84-2.97L443.85,60.61z"/>
						</g>
					</g>
				</g>
			</g>
		</g>
	</g>
	<g>
		<g>
			<g>
				<g>
					<g>
						<g>
							<path class="st2" d="M456.38,88.86l0.95,1.58c1.07,1.78,2.62,3.21,4.48,4.13l1.66,0.82l-1.58,0.95
								c-1.78,1.07-3.21,2.62-4.13,4.48l-0.82,1.66l-0.95-1.58c-1.07-1.78-2.62-3.21-4.48-4.13l-1.66-0.82l1.58-0.95
								c1.78-1.07,3.21-2.62,4.13-4.48L456.38,88.86z"/>
						</g>
					</g>
				</g>
			</g>
		</g>
	</g>
	<g>
		<g>
			<g>
				<g>
					<g>
						<g>
							<path class="st2" d="M69.98,397.81l0.78,1.29c0.87,1.45,2.14,2.61,3.65,3.36l1.35,0.67l-1.29,0.78
								c-1.45,0.87-2.61,2.14-3.36,3.65l-0.67,1.35l-0.78-1.29c-0.87-1.45-2.14-2.61-3.65-3.36l-1.35-0.67l1.29-0.78
								c1.45-0.87,2.61-2.14,3.36-3.65L69.98,397.81z"/>
						</g>
					</g>
				</g>
			</g>
		</g>
	</g>
	<g>
		<g>
			<g>
				<g>
					<g>
						<g>
							<path class="st2" d="M400.79,411.93l0.78,1.29c0.87,1.45,2.14,2.61,3.65,3.36l1.35,0.67l-1.29,0.78
								c-1.45,0.87-2.61,2.14-3.36,3.65l-0.67,1.35l-0.78-1.29c-0.87-1.45-2.14-2.61-3.65-3.36l-1.35-0.67l1.29-0.78
								c1.45-0.87,2.61-2.14,3.36-3.65L400.79,411.93z"/>
						</g>
					</g>
				</g>
			</g>
		</g>
	</g>
	<g>
		<g>
			<g>
				<g>
					<g>
						<g>
							<path class="st2" d="M60.33,43.23l0.78,1.29c0.87,1.45,2.14,2.61,3.65,3.36l1.35,0.67l-1.29,0.78
								c-1.45,0.87-2.61,2.14-3.36,3.65l-0.67,1.35l-0.78-1.29c-0.87-1.45-2.14-2.61-3.65-3.36l-1.35-0.67l1.29-0.78
								c1.45-0.87,2.61-2.14,3.36-3.65L60.33,43.23z"/>
						</g>
					</g>
				</g>
			</g>
		</g>
	</g>
	<g>
		<g>
			<g>
				<g>
					<g>
						<g>
							<path class="st2" d="M444.71,278.62l0.78,1.29c0.87,1.45,2.14,2.61,3.65,3.36l1.35,0.67l-1.29,0.78
								c-1.45,0.87-2.61,2.14-3.36,3.65l-0.67,1.35l-0.78-1.29c-0.87-1.45-2.14-2.61-3.65-3.36l-1.35-0.67l1.29-0.78
								c1.45-0.87,2.61-2.14,3.36-3.65L444.71,278.62z"/>
						</g>
					</g>
				</g>
			</g>
		</g>
	</g>
	<g>
		<g>
			<g>
				<g>
					<g>
						<g>
							<path class="st2" d="M57.03,136.16l0.78,1.29c0.87,1.45,2.14,2.61,3.65,3.36l1.35,0.67l-1.29,0.78
								c-1.45,0.87-2.61,2.14-3.36,3.65l-0.67,1.35l-0.78-1.29c-0.87-1.45-2.14-2.61-3.65-3.36l-1.35-0.67l1.29-0.78
								c1.45-0.87,2.61-2.14,3.36-3.65L57.03,136.16z"/>
						</g>
					</g>
				</g>
			</g>
		</g>
	</g>
</g>
<g id="Background_Simple" class="st6">
	<path class="st7" d="M428.95,101.58l-2.43-4.01C406,63.76,368.91,43.38,329.8,45.86c-5.03,0.32-10.03,1-14.97,2.06
		c-35.56,7.61-66.5,34.5-79.32,68.94c-7.54,20.25-9.65,43.57-23.96,59.65c-18.63,20.92-50.25,21.58-78.06,20.71
		c-27.8-0.87-59.45-0.13-77.99,20.88c-11.61,13.15-15.3,31.86-14.36,49.48c2.48,46.64,34.98,88.35,76.31,109.07
		c41.33,20.73,90,22.59,135.23,13.47c63.37-12.77,123.63-47.86,159.86-102.04C448.76,233.88,457.93,160.06,428.95,101.58z"/>
</g>
<g id="Floor">
	<g>
		<path class="st8" d="M457.88,462.97c0,0.14-88.74,0.26-198.17,0.26c-109.47,0-198.19-0.12-198.19-0.26
			c0-0.14,88.72-0.26,198.19-0.26C369.14,462.71,457.88,462.82,457.88,462.97z"/>
	</g>
</g>
<g id="Stars">
	<g>
		<g>
			<g>
				<g>
					<g>
						<g>
							<g>
								<path class="st9" d="M109.78,152.59l0.72,1.2c0.81,1.35,1.99,2.43,3.4,3.13l1.25,0.62l-1.2,0.72
									c-1.35,0.81-2.43,1.99-3.13,3.4l-0.62,1.25l-0.72-1.2c-0.81-1.35-1.99-2.43-3.4-3.13l-1.25-0.62l1.2-0.72
									c1.35-0.81,2.43-1.99,3.13-3.4L109.78,152.59z"/>
							</g>
						</g>
					</g>
				</g>
			</g>
		</g>
		<g>
			<g>
				<g>
					<g>
						<g>
							<g>
								<path class="st9" d="M369.35,284.28l0.72,1.2c0.81,1.35,1.99,2.43,3.4,3.13l1.25,0.62l-1.2,0.72
									c-1.35,0.81-2.43,1.99-3.13,3.4l-0.62,1.25l-0.72-1.2c-0.81-1.35-1.99-2.43-3.4-3.13l-1.25-0.62l1.2-0.72
									c1.35-0.81,2.43-1.99,3.13-3.4L369.35,284.28z"/>
							</g>
						</g>
					</g>
				</g>
			</g>
		</g>
		<g>
			<g>
				<g>
					<g>
						<g>
							<g>
								<path class="st9" d="M228.36,36.97l0.72,1.2c0.81,1.35,1.99,2.43,3.4,3.13l1.25,0.62l-1.2,0.72
									c-1.35,0.81-2.43,1.99-3.13,3.4l-0.62,1.25l-0.72-1.2c-0.81-1.35-1.99-2.43-3.4-3.13l-1.25-0.62l1.2-0.72
									c1.35-0.81,2.43-1.99,3.13-3.4L228.36,36.97z"/>
							</g>
						</g>
					</g>
				</g>
			</g>
		</g>
		<g>
			<g>
				<g>
					<g>
						<g>
							<g>
								<path class="st9" d="M397.14,149.97l0.72,1.2c0.81,1.35,1.99,2.43,3.4,3.13l1.25,0.62l-1.2,0.72
									c-1.35,0.81-2.43,1.99-3.13,3.4l-0.62,1.25l-0.72-1.2c-0.81-1.35-1.99-2.43-3.4-3.13l-1.25-0.62l1.2-0.72
									c1.35-0.81,2.43-1.99,3.13-3.4L397.14,149.97z"/>
							</g>
						</g>
					</g>
				</g>
			</g>
		</g>
		<g>
			<g>
				<g>
					<g>
						<g>
							<g>
								<path class="st9" d="M137.12,198.8l0.53,0.87c0.59,0.98,1.45,1.77,2.48,2.28l0.92,0.45l-0.87,0.53
									c-0.98,0.59-1.77,1.45-2.28,2.48l-0.45,0.92l-0.53-0.87c-0.59-0.98-1.45-1.77-2.48-2.28l-0.92-0.45l0.87-0.53
									c0.98-0.59,1.77-1.45,2.28-2.48L137.12,198.8z"/>
							</g>
						</g>
					</g>
				</g>
			</g>
		</g>
		<g>
			<g>
				<g>
					<g>
						<g>
							<g>
								<path class="st9" d="M161.04,310.86l0.53,0.87c0.59,0.98,1.45,1.77,2.48,2.28l0.92,0.45l-0.87,0.53
									c-0.98,0.59-1.77,1.45-2.28,2.48l-0.45,0.92l-0.53-0.87c-0.59-0.98-1.45-1.77-2.48-2.28l-0.92-0.45l0.87-0.53
									c0.98-0.59,1.77-1.45,2.28-2.48L161.04,310.86z"/>
							</g>
						</g>
					</g>
				</g>
			</g>
		</g>
		<g>
			<g>
				<g>
					<g>
						<g>
							<g>
								<path class="st9" d="M389.3,116.04l0.53,0.87c0.59,0.98,1.45,1.77,2.48,2.28l0.92,0.45l-0.87,0.53
									c-0.98,0.59-1.77,1.45-2.28,2.48l-0.45,0.92l-0.53-0.87c-0.59-0.98-1.45-1.77-2.48-2.28l-0.92-0.45l0.87-0.53
									c0.98-0.59,1.77-1.45,2.28-2.48L389.3,116.04z"/>
							</g>
						</g>
					</g>
				</g>
			</g>
		</g>
		<g>
			<g>
				<g>
					<g>
						<g>
							<g>
								<path class="st9" d="M90.3,175.16l0.53,0.87c0.59,0.98,1.45,1.77,2.48,2.28l0.92,0.45l-0.87,0.53
									c-0.98,0.59-1.77,1.45-2.28,2.48l-0.45,0.92l-0.53-0.87c-0.59-0.98-1.45-1.77-2.48-2.28l-0.92-0.45l0.87-0.53
									c0.98-0.59,1.77-1.45,2.28-2.48L90.3,175.16z"/>
							</g>
						</g>
					</g>
				</g>
			</g>
		</g>
		<g>
			<g>
				<g>
					<g>
						<g>
							<g>
								<path class="st9" d="M414.58,121.42l0.3,0.5c0.34,0.56,0.83,1.02,1.42,1.31l0.52,0.26l-0.5,0.3
									c-0.56,0.34-1.02,0.83-1.31,1.42l-0.26,0.52l-0.3-0.5c-0.34-0.56-0.83-1.02-1.42-1.31l-0.52-0.26l0.5-0.3
									c0.56-0.34,1.02-0.83,1.31-1.42L414.58,121.42z"/>
							</g>
						</g>
					</g>
				</g>
			</g>
		</g>
		<g>
			<g>
				<g>
					<g>
						<g>
							<g>
								<path class="st9" d="M395.89,265.38l0.3,0.5c0.34,0.56,0.83,1.02,1.42,1.31l0.52,0.26l-0.5,0.3
									c-0.56,0.34-1.02,0.83-1.31,1.42l-0.26,0.52l-0.3-0.5c-0.34-0.56-0.83-1.02-1.42-1.31l-0.52-0.26l0.5-0.3
									c0.56-0.34,1.02-0.83,1.31-1.42L395.89,265.38z"/>
							</g>
						</g>
					</g>
				</g>
			</g>
		</g>
		<g>
			<g>
				<g>
					<g>
						<g>
							<g>
								<path class="st9" d="M266.57,25.73l0.3,0.5c0.34,0.56,0.83,1.02,1.42,1.31l0.52,0.26l-0.5,0.3
									c-0.56,0.34-1.02,0.83-1.31,1.42l-0.26,0.52l-0.3-0.5c-0.34-0.56-0.83-1.02-1.42-1.31l-0.52-0.26l0.5-0.3
									c0.56-0.34,1.02-0.83,1.31-1.42L266.57,25.73z"/>
							</g>
						</g>
					</g>
				</g>
			</g>
		</g>
		<g>
			<g>
				<g>
					<g>
						<g>
							<g>
								<path class="st9" d="M209.3,51.26l0.3,0.5c0.34,0.56,0.83,1.02,1.42,1.31l0.52,0.26l-0.5,0.3
									c-0.56,0.34-1.02,0.83-1.31,1.42l-0.26,0.52l-0.3-0.5c-0.34-0.56-0.83-1.02-1.42-1.31l-0.52-0.26l0.5-0.3
									c0.56-0.34,1.02-0.83,1.31-1.42L209.3,51.26z"/>
							</g>
						</g>
					</g>
				</g>
			</g>
		</g>
		<g>
			<g>
				<g>
					<g>
						<g>
							<g>
								<path class="st9" d="M167.44,324.01l0.3,0.5c0.34,0.56,0.83,1.02,1.42,1.31l0.52,0.26l-0.5,0.3
									c-0.56,0.34-1.02,0.83-1.31,1.42l-0.26,0.52l-0.3-0.5c-0.34-0.56-0.83-1.02-1.42-1.31l-0.52-0.26l0.5-0.3
									c0.56-0.34,1.02-0.83,1.31-1.42L167.44,324.01z"/>
							</g>
						</g>
					</g>
				</g>
			</g>
		</g>
	</g>
</g>
<g id="Light_Bulb">
	<g>
		<g>
			<g>
				<g>
					<g>
						<path class="st10" d="M314.58,397.83l-123.98-0.29c-5.14-0.01-9.3-3.63-9.29-8.08l0,0c0.01-4.45,4.18-8.04,9.32-8.03
							l123.98,0.29c5.14,0.01,9.3,3.63,9.29,8.08l0,0C323.89,394.24,319.72,397.84,314.58,397.83z"/>
					</g>
				</g>
			</g>
		</g>
		<g>
			<g>
				<g>
					<g>
						<path class="st10" d="M314.58,378.27l-123.98-0.29c-5.14-0.01-9.3-3.63-9.29-8.08l0,0c0.01-4.45,4.18-8.04,9.32-8.03
							l123.98,0.29c5.14,0.01,9.3,3.63,9.29,8.08l0,0C323.89,374.69,319.72,378.28,314.58,378.27z"/>
					</g>
				</g>
			</g>
		</g>
		<g>
			<g>
				<g>
					<g>
						<path class="st10" d="M309.6,400.75l-113.52-0.26c-4.71-0.01-8.53,3.79-8.54,8.5c-0.01,4.7,3.79,8.53,8.5,8.54l12.46,0.03
							l16.46,31.5c1.88,3.6,5.61,5.87,9.67,5.88l40.56,0.09c4.11,0.01,7.87-2.28,9.75-5.93l16.14-31.33l8.47,0.02
							c4.7,0.01,8.53-3.79,8.54-8.5C318.11,404.58,314.3,400.76,309.6,400.75z"/>
					</g>
				</g>
			</g>
		</g>
		<g>
			<path class="st8" d="M348.59,268.67c0,0,0,0,0.01,0l0,0c0,0-0.31,0.47-0.91,1.37c-0.61,0.9-1.52,2.23-2.7,3.98
				c-0.6,0.87-1.26,1.85-2,2.93c-0.72,1.09-1.43,2.34-2.25,3.66c-0.8,1.33-1.67,2.76-2.6,4.3c-0.95,1.52-1.77,3.25-2.75,5.03
				c-0.48,0.89-0.97,1.81-1.47,2.76c-0.25,0.47-0.51,0.95-0.77,1.44c-0.23,0.5-0.47,1-0.71,1.51c-0.96,2.04-1.96,4.19-3.02,6.44
				c-0.94,2.3-1.92,4.7-2.94,7.19c-0.93,2.53-1.85,5.18-2.8,7.93c-1.72,5.56-3.43,11.58-4.64,18.11c-1.2,6.52-2.14,13.55-2.02,20.95
				l0,0.17l-0.16,0c-35.99,0.02-80.95,0.04-132.35,0.07l-0.21,0l-0.02-0.21c-1.22-14.77-5.26-30.03-11.94-44.75
				c-3.33-7.37-7.28-14.61-11.77-21.67c-2.24-3.53-4.62-7.01-7.15-10.41c-2.48-3.43-5.29-6.66-8.04-9.99l-0.33-0.4h0.53h0l-0.2,0.4
				c-11.91-15.29-20.79-34.02-24.69-54.41c-0.54-2.54-0.87-5.12-1.26-7.7c-0.16-1.29-0.28-2.6-0.43-3.9l-0.2-1.95l-0.13-1.96
				c-0.07-1.31-0.19-2.62-0.23-3.94c-0.03-1.32-0.06-2.64-0.08-3.96c-0.06-1.32,0.04-2.64,0.05-3.97c0.04-1.32,0.05-2.65,0.12-3.98
				c0.61-10.61,2.48-21.27,5.7-31.61c9.29-29.61,29.33-54.67,54.09-70.12c6.18-3.89,12.62-7.23,19.23-10
				c6.6-2.79,13.42-4.88,20.25-6.47c13.68-3.21,27.59-3.94,40.94-2.75c6.67,0.66,13.23,1.73,19.56,3.33
				c6.33,1.64,12.46,3.68,18.32,6.12c5.84,2.51,11.42,5.37,16.71,8.53c5.24,3.25,10.21,6.74,14.83,10.51
				c9.18,7.61,17.09,16.12,23.45,25.19c6.45,9.01,11.35,18.53,15.01,27.98c0.98,2.34,1.69,4.75,2.51,7.08
				c0.77,2.35,1.37,4.72,2.05,7.04c0.53,2.35,1.11,4.66,1.57,6.97c0.21,1.16,0.41,2.3,0.61,3.44c0.2,1.14,0.42,2.27,0.54,3.41
				c1.27,9.05,1.54,17.7,1.06,25.73c-0.93,16.11-4.75,29.64-8.94,40.14c-2.08,5.27-4.38,9.76-6.42,13.62
				c-2.12,3.81-4.06,6.96-5.71,9.44c-0.84,1.23-1.58,2.32-2.22,3.25c-0.67,0.9-1.24,1.66-1.69,2.27
				C349.09,268,348.69,268.54,348.59,268.67c0.1-0.14,0.49-0.67,1.34-1.86c0.45-0.62,1.01-1.4,1.68-2.32
				c0.63-0.94,1.36-2.03,2.2-3.27c1.64-2.49,3.56-5.64,5.67-9.45c2.02-3.86,4.3-8.35,6.37-13.62c4.16-10.5,7.93-24.01,8.83-40.09
				c0.46-8.02,0.18-16.65-1.1-25.67c-0.12-1.13-0.34-2.26-0.54-3.4c-0.2-1.14-0.41-2.28-0.62-3.43c-0.46-2.3-1.04-4.6-1.57-6.94
				c-0.68-2.31-1.28-4.67-2.05-7.01c-0.82-2.33-1.53-4.73-2.51-7.06c-3.66-9.42-8.56-18.9-15-27.88
				c-6.35-9.03-14.23-17.51-23.39-25.09c-4.61-3.75-9.57-7.23-14.79-10.47c-5.28-3.15-10.84-5.99-16.66-8.49
				c-5.85-2.43-11.96-4.46-18.26-6.09c-6.32-1.6-12.85-2.66-19.49-3.31c-13.3-1.18-27.16-0.44-40.78,2.76
				c-6.81,1.59-13.59,3.67-20.17,6.45c-6.58,2.76-13,6.09-19.15,9.96c-24.66,15.4-44.61,40.36-53.86,69.85
				c-3.21,10.3-5.07,20.92-5.68,31.48c-0.07,1.32-0.08,2.64-0.12,3.96c-0.01,1.32-0.11,2.64-0.05,3.95
				c0.03,1.32,0.06,2.63,0.08,3.94c0.03,1.31,0.15,2.62,0.23,3.92l0.12,1.96l0.2,1.95c0.14,1.3,0.26,2.59,0.42,3.88
				c0.39,2.57,0.72,5.14,1.26,7.67c3.88,20.31,12.72,38.97,24.58,54.2l0.31,0.4h-0.51h0l0.2-0.4c2.73,3.31,5.54,6.54,8.04,10
				c2.54,3.41,4.92,6.9,7.17,10.44c4.49,7.08,8.46,14.34,11.79,21.73c6.7,14.77,10.75,30.09,11.96,44.91l-0.23-0.21
				c51.41,0.03,96.36,0.05,132.35,0.07l-0.16,0.17c-0.11-7.46,0.84-14.48,2.06-21.02c1.23-6.55,2.96-12.57,4.69-18.13
				c0.96-2.75,1.89-5.41,2.83-7.94c1.03-2.5,2.01-4.9,2.96-7.2c1.06-2.25,2.07-4.39,3.04-6.43c0.24-0.51,0.48-1.02,0.71-1.51
				c0.26-0.49,0.52-0.96,0.77-1.44c0.51-0.94,1-1.86,1.48-2.76c0.99-1.77,1.82-3.5,2.77-5.02c0.94-1.53,1.81-2.96,2.62-4.29
				c0.82-1.32,1.54-2.57,2.27-3.65c0.74-1.08,1.42-2.05,2.02-2.92c1.2-1.74,2.12-3.06,2.74-3.96c0.62-0.89,0.95-1.34,0.95-1.34l0,0
				C348.59,268.67,348.59,268.67,348.59,268.67z"/>
		</g>
		<g>
			<path class="st8" d="M136.73,233.6c-0.01,0-0.05-0.09-0.11-0.28c-0.07-0.22-0.17-0.5-0.29-0.84c-0.25-0.78-0.61-1.87-1.06-3.26
				c-0.23-0.71-0.48-1.5-0.75-2.36c-0.25-0.87-0.47-1.83-0.73-2.85c-0.49-2.06-1.17-4.38-1.59-7.01c-0.24-1.31-0.5-2.68-0.76-4.11
				c-0.26-1.43-0.39-2.94-0.6-4.49c-0.47-3.1-0.62-6.45-0.86-9.97c-0.25-7.04-0.01-14.81,1.04-22.88c1.14-8.06,2.98-15.61,5.1-22.33
				c1.16-3.33,2.2-6.51,3.48-9.38c0.62-1.44,1.15-2.86,1.78-4.17c0.64-1.31,1.25-2.56,1.83-3.76c1.11-2.42,2.38-4.48,3.4-6.33
				c0.53-0.92,0.99-1.78,1.47-2.56c0.49-0.76,0.95-1.45,1.36-2.07c0.81-1.22,1.44-2.18,1.89-2.86c0.21-0.3,0.37-0.55,0.5-0.74
				c0.12-0.16,0.18-0.25,0.19-0.24c0.01,0.01-0.04,0.1-0.14,0.27c-0.12,0.2-0.27,0.45-0.46,0.76c-0.43,0.7-1.04,1.67-1.81,2.91
				c-0.4,0.63-0.84,1.33-1.32,2.09c-0.46,0.78-0.91,1.65-1.43,2.57c-1,1.86-2.24,3.92-3.33,6.35c-0.57,1.2-1.17,2.45-1.8,3.76
				c-0.62,1.31-1.14,2.73-1.74,4.17c-1.26,2.86-2.28,6.04-3.42,9.36c-2.08,6.7-3.9,14.23-5.04,22.26
				c-1.05,8.04-1.29,15.77-1.08,22.79c0.22,3.5,0.36,6.84,0.8,9.93c0.2,1.55,0.32,3.05,0.57,4.48c0.25,1.43,0.5,2.8,0.73,4.1
				c0.4,2.63,1.05,4.95,1.51,7.01c0.25,1.03,0.45,1.99,0.69,2.86c0.26,0.86,0.5,1.65,0.71,2.37c0.41,1.4,0.73,2.5,0.97,3.29
				c0.1,0.35,0.18,0.64,0.24,0.86C136.72,233.49,136.74,233.6,136.73,233.6z"/>
		</g>
		<g>
			<path class="st8" d="M174.93,99.03c0.09,0.11-2.99,2.92-6.88,6.28c-3.9,3.36-7.13,6-7.22,5.89c-0.09-0.11,2.99-2.92,6.88-6.28
				C171.6,101.56,174.83,98.92,174.93,99.03z"/>
		</g>
		<g>
			<path class="st8" d="M349.95,248.11c-0.01,0,0.02-0.08,0.09-0.23c0.08-0.17,0.18-0.39,0.3-0.65c0.29-0.6,0.69-1.42,1.19-2.46
				c0.26-0.54,0.55-1.13,0.87-1.77c0.31-0.65,0.61-1.38,0.95-2.15c0.66-1.55,1.49-3.28,2.22-5.28c0.38-0.99,0.78-2.03,1.2-3.1
				c0.41-1.08,0.76-2.23,1.17-3.41c0.84-2.35,1.53-4.92,2.3-7.62c1.41-5.42,2.65-11.47,3.46-17.89c0.75-6.43,0.98-12.6,0.91-18.2
				c-0.11-2.8-0.16-5.46-0.42-7.95c-0.11-1.24-0.18-2.44-0.32-3.59c-0.15-1.15-0.29-2.25-0.42-3.3c-0.23-2.11-0.62-3.99-0.89-5.65
				c-0.15-0.83-0.27-1.6-0.41-2.31c-0.15-0.7-0.3-1.34-0.42-1.93c-0.24-1.13-0.43-2.02-0.57-2.67c-0.05-0.28-0.1-0.51-0.14-0.7
				c-0.03-0.16-0.04-0.24-0.03-0.24s0.04,0.08,0.08,0.23c0.05,0.18,0.11,0.41,0.19,0.69c0.16,0.65,0.39,1.53,0.67,2.65
				c0.14,0.58,0.3,1.22,0.47,1.92c0.16,0.71,0.29,1.48,0.45,2.31c0.3,1.66,0.72,3.54,0.97,5.65c0.15,1.05,0.3,2.16,0.46,3.31
				c0.15,1.15,0.23,2.36,0.35,3.6c0.28,2.49,0.35,5.16,0.47,7.97c0.1,5.62-0.12,11.82-0.87,18.27c-0.81,6.45-2.07,12.51-3.51,17.95
				c-0.79,2.7-1.5,5.28-2.36,7.63c-0.42,1.18-0.78,2.33-1.2,3.41c-0.43,1.08-0.84,2.11-1.23,3.1c-0.75,1.99-1.6,3.72-2.29,5.26
				c-0.36,0.77-0.67,1.49-0.99,2.13c-0.33,0.64-0.64,1.22-0.91,1.75c-0.54,1.02-0.97,1.83-1.28,2.42c-0.14,0.25-0.25,0.46-0.34,0.62
				C350.01,248.04,349.96,248.11,349.95,248.11z"/>
		</g>
	</g>
</g>
<g id="Robot">
	<g>
		<path class="st9" d="M308.5,125.69c-6.84-3.92-13.99-7.49-21.68-9.19c-1.08-0.24-2.19-0.44-3.28-0.27
			c-1.09,0.17-2.17,0.77-2.65,1.76c-0.66,1.37-0.02,3,0.82,4.27c1.85,2.79,4.62,4.83,7.41,6.68c7.64,5.07,15.86,9.2,24.05,13.31
			C312.12,136.41,310.07,131.4,308.5,125.69"/>
		<path class="st9" d="M360.94,140.76c2.23,7.56,4.93,15.08,9.31,21.63c0.61,0.92,1.28,1.83,2.18,2.47c0.9,0.63,2.1,0.95,3.14,0.56
			c1.42-0.53,2.09-2.15,2.36-3.65c0.59-3.3,0-6.68-0.74-9.95c-2.02-8.94-5.1-17.61-8.17-26.25
			C365.74,130.51,363.75,135.55,360.94,140.76"/>
		<g>
			<g>
				<path class="st9" d="M308.4,125.53c0,0,0.54,52.35,29.92,53.38s30.61-53,30.61-53.38c0,0-3.47-7.81-30.26-7.5
					C311.87,118.34,308.4,125.53,308.4,125.53z"/>
			</g>
			<g>
				<g>
					<g>
						<g>
							<path class="st8" d="M347.42,146.32c-0.41,5.58-5.26,9.77-10.84,9.36c-5.58-0.41-9.77-5.26-9.36-10.84
								c0.41-5.58,5.26-9.77,10.84-9.36C343.64,135.89,347.83,140.74,347.42,146.32z"/>
						</g>
					</g>
					<g>
						<g>
							<path class="st5" d="M344.68,146.12c-0.3,4.07-3.83,7.12-7.9,6.82c-4.07-0.3-7.12-3.83-6.82-7.9c0.3-4.07,3.83-7.12,7.9-6.82
								S344.98,142.06,344.68,146.12z"/>
						</g>
					</g>
				</g>
				<g>
					<g>
						<g>
							<path class="st9" d="M341.12,147.47c-0.03-0.02-0.05-0.45-0.07-1.22c-0.02-0.76-0.03-1.85-0.03-3.18l0.08,0.15
								c-1.11-0.64-2.39-1.4-3.8-2.21l0.21,0c-1.19,0.67-2.48,1.4-3.83,2.15c-0.1,0.17,0.14-0.23,0.11-0.19v0v0l0,0l0,0.01l0,0.02
								l0,0.04l0,0.07l0,0.14l0,0.29l-0.01,0.57c-0.01,0.38-0.01,0.75-0.02,1.12c-0.01,0.73-0.03,1.45-0.04,2.13l-0.1-0.19
								c1.39,0.85,2.65,1.62,3.75,2.29l-0.17,0c1.17-0.63,2.14-1.13,2.82-1.48C340.7,147.64,341.09,147.45,341.12,147.47
								c0.03,0.02-0.31,0.24-0.96,0.63c-0.65,0.39-1.6,0.96-2.8,1.65l-0.08,0.05l-0.09-0.05c-1.11-0.65-2.39-1.4-3.8-2.21l-0.1-0.06
								l0-0.12c0.01-0.69,0.01-1.4,0.02-2.13c0-0.37,0.01-0.74,0.01-1.12l0.01-0.57l0-0.29l0-0.14l0-0.07l0-0.04l0-0.02v-0.01l0,0v0
								v0c-0.03,0.04,0.22-0.37,0.12-0.19c1.35-0.75,2.65-1.47,3.84-2.13l0.11-0.06l0.1,0.06c1.39,0.85,2.66,1.62,3.75,2.29
								l0.08,0.05l0,0.09c-0.04,1.38-0.09,2.49-0.13,3.25C341.18,147.08,341.15,147.48,341.12,147.47z"/>
						</g>
					</g>
				</g>
			</g>
			<g>
				<g>
					<path class="st8" d="M308.27,125.49c0,0,0.05,0.01,0.15,0.04c0.11,0.04,0.26,0.09,0.44,0.15c0.4,0.14,0.97,0.34,1.7,0.6
						c0.37,0.13,0.78,0.28,1.23,0.44c0.45,0.15,0.95,0.29,1.48,0.46c1.07,0.32,2.27,0.73,3.63,1.05c0.68,0.17,1.39,0.36,2.13,0.55
						c0.74,0.19,1.53,0.33,2.33,0.5c1.61,0.37,3.35,0.62,5.18,0.92c3.67,0.5,7.73,0.84,12.01,0.86c4.28-0.02,8.34-0.36,12.01-0.86
						c1.83-0.3,3.57-0.55,5.18-0.91c0.8-0.17,1.59-0.31,2.33-0.5c0.74-0.19,1.45-0.37,2.13-0.55c1.36-0.32,2.57-0.73,3.63-1.05
						c0.53-0.17,1.03-0.31,1.48-0.46c0.45-0.16,0.86-0.31,1.23-0.44c0.73-0.26,1.3-0.46,1.7-0.6c0.19-0.06,0.34-0.11,0.44-0.15
						c0.1-0.03,0.15-0.05,0.15-0.04c0,0-0.05,0.03-0.15,0.06c-0.11,0.04-0.25,0.1-0.44,0.17c-0.4,0.15-0.96,0.36-1.69,0.64
						c-0.37,0.14-0.78,0.29-1.22,0.46c-0.45,0.16-0.95,0.3-1.48,0.48c-1.07,0.33-2.26,0.75-3.63,1.08
						c-0.68,0.18-1.39,0.37-2.13,0.56c-0.74,0.19-1.53,0.33-2.33,0.51c-1.61,0.38-3.35,0.63-5.18,0.94
						c-3.68,0.51-7.75,0.86-12.04,0.87c-4.28-0.02-8.36-0.37-12.03-0.88c-1.83-0.3-3.58-0.56-5.18-0.94
						c-0.81-0.18-1.59-0.32-2.33-0.51c-0.74-0.19-1.45-0.38-2.13-0.56c-1.36-0.33-2.56-0.75-3.63-1.08
						c-0.53-0.17-1.03-0.32-1.48-0.48c-0.45-0.17-0.85-0.32-1.22-0.46c-0.73-0.27-1.29-0.49-1.69-0.64
						c-0.18-0.07-0.33-0.13-0.44-0.17C308.32,125.51,308.27,125.49,308.27,125.49z"/>
				</g>
			</g>
			<g class="st4">
				<path d="M308.4,125.53c0,0,3.47-7.2,30.26-7.5c26.79-0.31,30.26,7.5,30.26,7.5S341.9,138.86,308.4,125.53z"/>
			</g>
			<g>
				<g>
					<path class="st5" d="M317.61,162.79c0,0-0.02-0.02-0.05-0.08c-0.04-0.06-0.08-0.14-0.13-0.24c-0.12-0.23-0.28-0.53-0.48-0.92
						c-0.1-0.2-0.22-0.42-0.34-0.67c-0.12-0.25-0.24-0.52-0.38-0.81c-0.27-0.58-0.58-1.24-0.87-1.99c-0.15-0.37-0.31-0.76-0.48-1.17
						c-0.15-0.41-0.31-0.84-0.48-1.28c-0.34-0.88-0.63-1.85-0.98-2.86c-0.63-2.03-1.24-4.29-1.78-6.69c-0.53-2.4-0.93-4.7-1.25-6.81
						c-0.29-2.11-0.53-4.01-0.65-5.61c-0.08-0.8-0.12-1.53-0.16-2.16c-0.04-0.64-0.07-1.19-0.09-1.64
						c-0.01-0.44-0.03-0.78-0.03-1.03c0-0.11,0-0.2,0-0.27c0-0.06,0-0.09,0.01-0.09c0,0,0.01,0.03,0.02,0.09
						c0.01,0.07,0.01,0.16,0.02,0.27c0.02,0.25,0.04,0.6,0.07,1.03c0.03,0.45,0.07,1,0.12,1.63c0.05,0.64,0.11,1.36,0.2,2.16
						c0.15,1.6,0.39,3.5,0.7,5.6c0.33,2.1,0.74,4.4,1.26,6.79c0.54,2.39,1.14,4.64,1.76,6.68c0.34,1.01,0.62,1.98,0.96,2.86
						c0.16,0.44,0.31,0.87,0.46,1.29c0.16,0.41,0.32,0.8,0.47,1.17c0.29,0.75,0.58,1.41,0.84,1.99c0.13,0.29,0.25,0.56,0.36,0.81
						c0.12,0.24,0.23,0.47,0.33,0.67c0.19,0.39,0.34,0.7,0.45,0.93c0.04,0.1,0.08,0.18,0.11,0.25
						C317.6,162.76,317.61,162.79,317.61,162.79z"/>
				</g>
			</g>
			<g>
				<g>
					<path class="st5" d="M331.77,175.38c0,0.01-0.17-0.01-0.47-0.06c-0.3-0.05-0.73-0.15-1.25-0.3c-0.52-0.15-1.13-0.38-1.78-0.68
						c-0.65-0.31-1.34-0.7-2.02-1.17c-0.68-0.48-1.28-1-1.79-1.5c-0.5-0.51-0.93-1-1.25-1.44c-0.32-0.44-0.56-0.81-0.71-1.07
						c-0.15-0.26-0.22-0.41-0.21-0.42c0.03-0.02,0.37,0.56,1.03,1.4c0.33,0.42,0.76,0.9,1.26,1.4c0.51,0.49,1.11,1,1.77,1.47
						c0.67,0.47,1.35,0.85,1.98,1.17c0.64,0.31,1.23,0.55,1.74,0.72C331.11,175.22,331.77,175.34,331.77,175.38z"/>
				</g>
			</g>
			<g>
				<g>
					<path class="st5" d="M337.89,156.91c0,0.01-0.1,0.02-0.28,0.03c-0.18,0-0.46,0.04-0.81,0.02c-0.7,0-1.72-0.11-2.93-0.47
						c-0.6-0.18-1.24-0.44-1.91-0.77c-0.65-0.35-1.34-0.75-1.98-1.28c-1.31-1.03-2.52-2.47-3.3-4.24c-0.76-1.78-0.98-3.65-0.84-5.31
						c0.06-0.83,0.23-1.61,0.42-2.32c0.22-0.71,0.46-1.35,0.74-1.92c0.56-1.13,1.17-1.95,1.65-2.46c0.22-0.27,0.44-0.44,0.57-0.57
						c0.13-0.13,0.21-0.19,0.21-0.18c0.02,0.02-0.27,0.28-0.72,0.81c-0.46,0.53-1.04,1.35-1.58,2.47c-0.27,0.56-0.5,1.2-0.71,1.9
						c-0.18,0.71-0.34,1.47-0.39,2.29c-0.13,1.63,0.1,3.47,0.84,5.21c0.77,1.73,1.95,3.15,3.23,4.17c0.63,0.52,1.3,0.92,1.94,1.28
						c0.65,0.33,1.28,0.6,1.87,0.78c1.18,0.37,2.19,0.51,2.89,0.53C337.5,156.91,337.89,156.89,337.89,156.91z"/>
				</g>
			</g>
			<g>
				<g>
					<path class="st9" d="M336.62,71.1c0,0-25.61-0.31-29.67,21.88c-4.05,22.18,17.61,22.6,23.84,23.02
						c2.83,0.19,8.87,0.21,14.2,0.12c11.81-0.21,20.15-2.49,22.99-13.44c0.33-1.28,0.55-2.59,0.64-3.92
						C369.37,86.74,361.24,70.51,336.62,71.1z"/>
				</g>
				<g>
					<path class="st8" d="M355.2,104.89l-37.21,0.58c-3.9,0.06-7.11-3.05-7.17-6.95l0,0c-0.06-3.9,3.05-7.11,6.95-7.17l37.21-0.58
						c3.9-0.06,7.11,3.05,7.17,6.95l0,0C362.22,101.62,359.1,104.83,355.2,104.89z"/>
				</g>
				<g>
					<path class="st5" d="M325.71,97.75c-0.24,1.23-1.43,2.03-2.66,1.79c-1.23-0.24-2.03-1.43-1.79-2.66
						c0.24-1.23,1.43-2.03,2.66-1.79C325.15,95.33,325.95,96.52,325.71,97.75z"/>
				</g>
				<g>
					<path class="st5" d="M351.71,97.33c-0.24,1.23-1.43,2.03-2.66,1.79c-1.23-0.24-2.03-1.43-1.79-2.66
						c0.24-1.23,1.43-2.03,2.66-1.79C351.15,94.91,351.95,96.1,351.71,97.33z"/>
				</g>
				<g>
					<g>
						<path class="st5" d="M332.23,96.7c0.17,0.02,0.08,0.81,0.58,1.86c0.24,0.52,0.64,1.1,1.2,1.58c0.56,0.49,1.31,0.86,2.13,0.94
							c0.82,0.07,1.63-0.17,2.27-0.54c0.65-0.38,1.14-0.87,1.47-1.34c0.68-0.95,0.74-1.74,0.91-1.73c0.07,0,0.13,0.2,0.13,0.58
							c0,0.37-0.11,0.92-0.41,1.53c-0.3,0.61-0.83,1.26-1.59,1.77c-0.75,0.51-1.77,0.86-2.87,0.77c-1.09-0.11-2.03-0.64-2.68-1.27
							c-0.66-0.64-1.06-1.38-1.24-2.03c-0.19-0.65-0.2-1.21-0.13-1.58C332.06,96.87,332.17,96.69,332.23,96.7z"/>
					</g>
				</g>
				<g>
					<g>
						<path class="st5" d="M333.38,72.76c0,0-0.03,0.01-0.09,0.02c-0.07,0.01-0.16,0.01-0.27,0.02c-0.24,0.02-0.59,0.03-1.04,0.09
							c-0.9,0.08-2.2,0.26-3.78,0.63c-1.58,0.36-3.42,0.96-5.36,1.85c-1.94,0.9-3.96,2.12-5.87,3.69c-1.9,1.58-3.49,3.33-4.74,5.07
							c-1.25,1.74-2.18,3.43-2.84,4.91c-0.66,1.48-1.08,2.72-1.33,3.59c-0.14,0.43-0.21,0.78-0.28,1c-0.03,0.1-0.06,0.19-0.08,0.26
							c-0.02,0.06-0.03,0.09-0.03,0.09c0,0,0-0.03,0.01-0.09c0.02-0.07,0.03-0.16,0.06-0.27c0.06-0.23,0.12-0.58,0.24-1.02
							c0.23-0.88,0.63-2.14,1.28-3.63c0.64-1.49,1.57-3.21,2.82-4.96c1.25-1.75,2.85-3.53,4.76-5.12c1.92-1.58,3.97-2.81,5.93-3.7
							c1.96-0.9,3.82-1.48,5.41-1.82c1.59-0.35,2.9-0.51,3.81-0.56c0.45-0.04,0.81-0.04,1.05-0.05c0.11,0,0.2,0,0.27,0
							C333.35,72.75,333.38,72.75,333.38,72.76z"/>
					</g>
				</g>
				<g>
					<g>
						<path class="st5" d="M308.32,103.49c-0.02,0.01-0.18-0.29-0.36-0.8c-0.19-0.51-0.39-1.23-0.52-2.05
							c-0.13-0.82-0.15-1.57-0.13-2.11c0.02-0.54,0.08-0.87,0.1-0.87c0.07,0-0.03,1.34,0.23,2.95
							C307.89,102.23,308.38,103.47,308.32,103.49z"/>
					</g>
				</g>
				<g>
					<g>
						<path class="st5" d="M349.05,89.46c0,0.06-4.9,0.1-10.95,0.1c-6.05,0-10.95-0.05-10.95-0.1c0-0.06,4.9-0.1,10.95-0.1
							C344.15,89.36,349.05,89.41,349.05,89.46z"/>
					</g>
				</g>
				<g>
					<g>
						<path class="st5" d="M330.37,114.42c0,0.01-0.06,0.02-0.18,0.03c-0.15,0.01-0.32,0.03-0.53,0.05
							c-0.23,0.02-0.52,0.04-0.85,0.04c-0.33,0.01-0.71,0.03-1.12,0.01c-0.83,0-1.82-0.06-2.92-0.18c-1.09-0.13-2.29-0.32-3.53-0.61
							c-1.24-0.3-2.4-0.66-3.43-1.03c-1.03-0.39-1.95-0.78-2.69-1.15c-0.38-0.17-0.71-0.36-1-0.51c-0.29-0.15-0.54-0.3-0.74-0.42
							c-0.18-0.11-0.33-0.2-0.46-0.28c-0.1-0.07-0.16-0.1-0.15-0.11c0-0.01,0.06,0.02,0.17,0.07c0.13,0.07,0.29,0.15,0.48,0.24
							c0.2,0.11,0.46,0.24,0.75,0.38c0.3,0.14,0.63,0.32,1.01,0.48c0.75,0.35,1.66,0.73,2.69,1.1c1.03,0.36,2.19,0.71,3.42,1.01
							c1.23,0.29,2.42,0.48,3.51,0.62c1.09,0.13,2.07,0.2,2.9,0.22c0.41,0.02,0.79,0.01,1.12,0.02c0.33,0.01,0.61,0,0.85-0.01
							c0.21,0,0.39,0,0.53-0.01C330.31,114.41,330.37,114.42,330.37,114.42z"/>
					</g>
				</g>
			</g>
			<g>
				<g>
					<path class="st5" d="M361.69,128.73c0,0-0.03,0.02-0.1,0.04c-0.08,0.03-0.17,0.06-0.29,0.11c-0.27,0.1-0.64,0.23-1.11,0.4
						c-0.48,0.17-1.07,0.38-1.77,0.58c-0.7,0.21-1.48,0.47-2.37,0.69c-0.44,0.12-0.91,0.24-1.39,0.37
						c-0.48,0.13-0.99,0.23-1.52,0.35c-1.05,0.25-2.18,0.45-3.37,0.68c-2.39,0.4-5.03,0.74-7.82,0.92
						c-2.79,0.16-5.46,0.15-7.88,0.04c-1.21-0.08-2.36-0.14-3.43-0.26c-0.54-0.06-1.05-0.1-1.55-0.16
						c-0.49-0.07-0.97-0.13-1.42-0.19c-0.91-0.11-1.72-0.27-2.44-0.39c-0.72-0.12-1.33-0.25-1.83-0.36
						c-0.49-0.11-0.87-0.19-1.15-0.26c-0.12-0.03-0.22-0.05-0.3-0.07c-0.07-0.02-0.1-0.03-0.1-0.03c0,0,0.04,0,0.1,0.01
						c0.08,0.01,0.18,0.03,0.3,0.05c0.28,0.05,0.67,0.13,1.16,0.22c0.5,0.1,1.12,0.22,1.83,0.32c0.72,0.11,1.53,0.26,2.44,0.36
						c0.45,0.06,0.93,0.12,1.42,0.18c0.49,0.06,1.01,0.1,1.55,0.15c1.07,0.12,2.22,0.17,3.42,0.24c2.41,0.1,5.07,0.1,7.86-0.06
						c2.78-0.18,5.42-0.51,7.8-0.9c1.19-0.22,2.32-0.41,3.37-0.66c0.52-0.12,1.03-0.22,1.52-0.34c0.48-0.12,0.95-0.24,1.39-0.35
						c0.89-0.21,1.68-0.46,2.38-0.66c0.7-0.19,1.3-0.39,1.78-0.55c0.48-0.15,0.85-0.27,1.12-0.36c0.12-0.04,0.22-0.06,0.29-0.09
						C361.66,128.74,361.69,128.73,361.69,128.73z"/>
				</g>
			</g>
		</g>
	</g>
</g>
<g id="Rocket">
	<g>
		<g>
			<path class="st9" d="M118.37,300.86l0.07,13.87c0,0,23.03-13.04,16.27-25.45L118.37,300.86z"/>
			<path class="st9" d="M120.61,268.82c0,0-16.57-6.07-29.17,5.21l12.92,7.29L120.61,268.82z"/>
			<g>
				<path class="st1" d="M104.36,281.33c0.53,0.69,14.01,19.54,14.01,19.54l35.22-24.96c6.15-4.36,7.25-13.05,2.38-18.8l0,0
					c-4.44-5.25-12.22-6.08-17.67-1.89L104.36,281.33z"/>
				<g>
					<path class="st8" d="M104.36,281.33c-0.01,0,0.09-0.08,0.28-0.24c0.22-0.17,0.51-0.41,0.88-0.7c0.81-0.63,1.96-1.54,3.44-2.7
						c3.04-2.36,7.39-5.75,12.76-9.93c2.71-2.1,5.67-4.4,8.85-6.86c1.59-1.23,3.24-2.51,4.94-3.82c0.85-0.66,1.71-1.32,2.59-2
						c0.9-0.65,1.86-1.29,2.93-1.71c0.52-0.25,1.08-0.39,1.63-0.59c0.57-0.12,1.13-0.29,1.72-0.34c1.16-0.18,2.37-0.16,3.56,0
						c2.38,0.32,4.74,1.33,6.65,2.95c0.98,0.78,1.78,1.78,2.51,2.82c0.69,1.07,1.24,2.24,1.62,3.48c0.73,2.48,0.72,5.22-0.09,7.75
						c-0.79,2.41-2.25,4.59-4.19,6.13c-1.96,1.5-3.93,2.82-5.85,4.2c-3.85,2.72-7.57,5.35-11.12,7.86c-7.1,5.01-13.53,9.55-19,13.4
						l-0.16,0.11l-0.11-0.15c-4.29-6.06-7.77-10.97-10.2-14.4c-1.18-1.67-2.09-2.98-2.74-3.9c-0.3-0.43-0.53-0.76-0.7-1.01
						C104.42,281.44,104.35,281.33,104.36,281.33c0.01,0,0.1,0.12,0.27,0.35c0.18,0.25,0.43,0.58,0.75,1.01
						c0.67,0.91,1.62,2.21,2.84,3.88c2.45,3.38,5.96,8.22,10.3,14.19l-0.26-0.04c5.45-3.88,11.86-8.44,18.94-13.49
						c3.55-2.52,7.26-5.16,11.1-7.88c1.9-1.38,3.92-2.72,5.82-4.18c1.87-1.48,3.27-3.57,4.03-5.89c0.78-2.43,0.79-5.06,0.09-7.45
						c-0.37-1.19-0.89-2.31-1.56-3.34c-0.7-1-1.47-1.96-2.41-2.71c-1.83-1.56-4.09-2.54-6.39-2.85c-1.15-0.15-2.3-0.18-3.43-0.01
						c-0.57,0.05-1.11,0.21-1.66,0.32c-0.53,0.18-1.07,0.32-1.57,0.56c-2.06,0.83-3.68,2.36-5.4,3.62
						c-1.69,1.29-3.33,2.55-4.92,3.77c-3.18,2.43-6.14,4.69-8.85,6.76c-5.42,4.12-9.81,7.46-12.88,9.79
						c-1.52,1.14-2.7,2.04-3.53,2.67c-0.39,0.29-0.7,0.52-0.93,0.69C104.48,281.25,104.37,281.33,104.36,281.33z"/>
				</g>
			</g>
			<path class="st9" d="M121.24,280.25l-22.01,15.83c0,0,0.95,2.42,1.55,2.17c0.51-0.21,17.08-11.5,22.46-15.16
				c0.88-0.6,1.01-1.84,0.28-2.61l0,0C122.92,279.83,121.94,279.74,121.24,280.25z"/>
			<g>
				<path class="st5" d="M144.07,270.31c0.26,4.06-2.81,7.56-6.87,7.82c-4.06,0.26-7.56-2.81-7.82-6.87
					c-0.26-4.06,2.81-7.56,6.87-7.82C140.31,263.18,143.81,266.26,144.07,270.31z"/>
				<g>
					<path class="st8" d="M144.07,270.31c-0.06,0.01-0.07-0.65-0.44-1.75c-0.36-1.07-1.21-2.63-2.94-3.75
						c-0.86-0.55-1.91-0.99-3.1-1.12c-1.18-0.12-2.5,0.01-3.72,0.57c-1.22,0.53-2.36,1.46-3.13,2.7c-0.8,1.22-1.19,2.74-1.11,4.28
						c0.11,1.54,0.7,3,1.65,4.11c0.92,1.12,2.17,1.9,3.45,2.27c1.28,0.4,2.6,0.36,3.76,0.09c1.17-0.28,2.16-0.85,2.93-1.51
						c1.57-1.34,2.21-2.99,2.43-4.1C144.09,270.97,144.02,270.31,144.07,270.31c0.02,0,0.04,0.16,0.06,0.47
						c0.03,0.31,0.02,0.77-0.08,1.36c-0.17,1.15-0.78,2.89-2.39,4.33c-0.8,0.7-1.84,1.33-3.06,1.64c-1.22,0.3-2.62,0.37-3.99-0.05
						c-1.37-0.38-2.71-1.2-3.7-2.4c-1.02-1.18-1.65-2.74-1.77-4.39c-0.09-1.65,0.34-3.28,1.19-4.58c0.83-1.31,2.05-2.3,3.36-2.86
						c1.31-0.59,2.7-0.7,3.95-0.56c1.26,0.15,2.37,0.64,3.25,1.24c1.79,1.22,2.61,2.87,2.93,3.99c0.17,0.57,0.24,1.03,0.25,1.34
						C144.09,270.15,144.09,270.31,144.07,270.31z"/>
				</g>
			</g>
		</g>
		<path class="st9" d="M155.23,274.51c11.83-11.06,9.72-23.87,9.72-23.87c-15.91-4.18-26.65,4.58-26.65,4.58
			C148.89,256.7,154.56,263.11,155.23,274.51z"/>
	</g>
</g>
<g id="Character">
	<g>
		<g>
			<g>
				<path class="st11" d="M280.89,227.42l4.08,37.77l24.32,8.11l0.99,11.76l-34.33-2.3c0,0-10.58,0.26-12.88-13.68l-0.56-36.64
					L280.89,227.42z"/>
			</g>
			<g>
				<g>
					<g>
						<g>
							<path class="st11" d="M331.36,284.86c-0.45,0.51-1.17,0.73-1.82,0.5c-0.13-0.05-0.26-0.11-0.39-0.19
								c-0.86-0.55-0.27-2.43-0.27-2.43l-4.29-1.92c0,0-6.82,2.22-9.55,4.16c-2.73,1.94-7.49-1.47-7.49-1.47l0.69-10.04l10.22-5.28
								c0,0-0.62,0.31,0.31-0.93c0.94-1.25,3.39-0.03,3.39-0.03c0.59-0.58,2.34-0.38,2.34-0.38l7.02,2.75
								c1.45,0.57,2.56,1.76,3.02,3.24l1.78,5.65c0,0,0.7,3.92,0.22,4.66c-0.72,1.12-1.94,0.51-1.94,0.51s-0.96,2.2-1.59,2.12
								C332.42,285.69,331.36,284.86,331.36,284.86L331.36,284.86z"/>
						</g>
					</g>
				</g>
				<g>
					<g>
						<g>
							<g>
								<path class="st12" d="M317.04,283.87c0.01,0.01,0.18-0.06,0.52-0.21c0.38-0.17,0.86-0.38,1.47-0.65
									c1.29-0.54,3.19-1.3,5.62-2.02l-0.11-0.01c1.28,0.58,2.72,1.24,4.28,1.95l-0.1-0.23c-0.11,0.36-0.18,0.73-0.21,1.12
									c-0.02,0.38-0.01,0.81,0.22,1.21c0.12,0.2,0.33,0.35,0.52,0.43c0.19,0.1,0.4,0.18,0.62,0.2c0.44,0.05,0.9-0.07,1.28-0.32
									c0.09-0.06,0.18-0.14,0.26-0.21l0.06-0.06l0.03-0.03l0.01-0.02l0,0c0.06-0.01-0.55,0.05-0.29,0.03l0,0l0.01,0.01l0.13,0.1
									c0.17,0.12,0.34,0.24,0.52,0.36c0.18,0.11,0.37,0.22,0.57,0.32c0.1,0.05,0.21,0.09,0.32,0.12c0.11,0.03,0.24,0.07,0.44,0.03
									c0.3-0.11,0.45-0.3,0.6-0.48c0.14-0.18,0.27-0.37,0.39-0.56c0.23-0.38,0.43-0.78,0.62-1.19l-0.31,0.11
									c0.55,0.26,1.28,0.3,1.82-0.13c0.25-0.2,0.48-0.47,0.55-0.82c0.07-0.32,0.07-0.61,0.07-0.91c-0.02-1.18-0.19-2.35-0.38-3.55
									l0-0.01l-0.01-0.02c-0.3-0.96-0.62-1.98-0.95-3.02c-0.2-0.64-0.4-1.28-0.6-1.91c-0.21-0.62-0.36-1.29-0.72-1.89
									c-0.34-0.59-0.8-1.11-1.34-1.51c-0.53-0.42-1.18-0.65-1.74-0.87c-2.33-0.9-4.55-1.76-6.62-2.57l-0.03-0.01l-0.03,0
									c-0.44-0.04-0.86-0.04-1.28,0c-0.42,0.05-0.86,0.12-1.23,0.45l0.27-0.01c-0.68-0.52-1.57-0.75-2.36-0.48
									c-0.79,0.27-1.29,0.9-1.63,1.53l0.08-0.08c-2.93,1.5-5.33,2.73-7.04,3.61c-0.79,0.42-1.43,0.75-1.9,1.01
									c-0.43,0.24-0.66,0.37-0.65,0.38c0.01,0.02,0.25-0.08,0.7-0.29c0.49-0.23,1.14-0.54,1.95-0.92
									c1.73-0.84,4.15-2.02,7.11-3.47l0.05-0.02l0.03-0.06c0.31-0.55,0.79-1.13,1.43-1.32c0.64-0.22,1.41-0.01,1.98,0.43
									l0.14,0.11l0.13-0.12c0.22-0.2,0.61-0.29,0.99-0.33c0.38-0.04,0.79-0.03,1.19,0.01l-0.05-0.01
									c2.07,0.82,4.28,1.69,6.61,2.61c0.59,0.23,1.15,0.44,1.63,0.82c0.49,0.36,0.9,0.83,1.21,1.37c0.32,0.53,0.46,1.16,0.67,1.79
									c0.2,0.63,0.4,1.27,0.6,1.91c0.33,1.03,0.65,2.05,0.95,3.02l-0.01-0.03c0.19,1.17,0.36,2.34,0.38,3.47
									c0,0.28,0,0.56-0.06,0.8c-0.03,0.21-0.19,0.41-0.38,0.56c-0.36,0.3-0.91,0.28-1.33,0.09l-0.22-0.1l-0.09,0.21
									c-0.18,0.39-0.37,0.78-0.59,1.14c-0.21,0.34-0.49,0.75-0.72,0.84c-0.01,0-0.09,0.01-0.19-0.03
									c-0.09-0.02-0.18-0.06-0.27-0.1c-0.18-0.08-0.35-0.18-0.53-0.29c-0.17-0.11-0.34-0.22-0.5-0.34l-0.12-0.09l-0.01-0.01l0,0
									c0.26-0.02-0.35,0.03-0.29,0.03l0,0l-0.01,0.01l-0.02,0.02l-0.05,0.05c-0.07,0.06-0.13,0.12-0.21,0.17
									c-0.29,0.2-0.65,0.3-0.99,0.26c-0.17-0.02-0.33-0.07-0.49-0.16c-0.17-0.07-0.28-0.15-0.36-0.28c-0.31-0.56-0.16-1.37,0-2
									l0.04-0.17l-0.15-0.06c-1.57-0.69-3.02-1.32-4.3-1.89l-0.06-0.02l-0.05,0.02c-2.45,0.77-4.33,1.57-5.61,2.17
									c-0.63,0.3-1.12,0.55-1.44,0.73C317.2,283.75,317.03,283.85,317.04,283.87z"/>
							</g>
						</g>
					</g>
				</g>
			</g>
			<g>
				<g>
					<path class="st12" d="M322.73,270.1c-0.03,0.05,0.74,0.6,2.14,1.31c1.39,0.7,3.44,1.51,5.86,2.01l-0.2-0.23
						c0.03,0.39,0.06,0.8,0.11,1.21c0.34,2.75,1.29,5.1,2.17,6.66c0.44,0.79,0.86,1.38,1.16,1.78c0.31,0.4,0.5,0.6,0.53,0.58
						c0.07-0.05-0.59-0.94-1.38-2.52c-0.79-1.58-1.66-3.89-1.99-6.56c-0.05-0.4-0.08-0.8-0.11-1.18l-0.01-0.19l-0.18-0.04
						c-2.37-0.47-4.4-1.21-5.81-1.83C323.59,270.5,322.77,270.04,322.73,270.1z"/>
				</g>
			</g>
			<g>
				<g>
					<path class="st12" d="M328.49,276.14c-0.12-0.01-0.18,2.11,0.72,4.53c0.88,2.43,2.29,4.01,2.37,3.93
						c0.12-0.09-1.07-1.75-1.91-4.1C328.8,278.16,328.64,276.12,328.49,276.14z"/>
				</g>
			</g>
			<g>
				<g>
					<path class="st12" d="M306.9,280.23c-0.01,0.01,0.06,0.08,0.19,0.19c0.14,0.12,0.35,0.28,0.64,0.46
						c0.58,0.37,1.5,0.84,2.76,1.08c1.25,0.24,2.85,0.24,4.49-0.4c1.63-0.63,3.27-1.89,4.3-3.73l-0.31,0.1
						c1.53,0.74,3.29,1.32,5.17,1.63c0.67,0.11,1.34,0.18,2.01,0.22c0.66,0.03,1.33,0.07,2.01-0.12c0.31-0.09,0.7-0.26,0.91-0.61
						c0.21-0.33,0.25-0.73,0.16-1.08c-0.09-0.35-0.33-0.67-0.65-0.85c-0.26-0.14-0.52-0.29-0.78-0.43
						c-2.06-1.11-3.96-2.02-5.58-2.73c-1.62-0.71-2.95-1.23-3.88-1.57c-0.93-0.34-1.45-0.49-1.47-0.46
						c-0.01,0.03,0.49,0.25,1.39,0.64c0.91,0.39,2.21,0.96,3.81,1.7c1.59,0.75,3.47,1.69,5.5,2.82c0.25,0.14,0.51,0.29,0.77,0.43
						c0.21,0.12,0.36,0.32,0.42,0.56c0.06,0.24,0.03,0.5-0.1,0.7c-0.13,0.21-0.35,0.31-0.64,0.4c-0.56,0.16-1.2,0.13-1.84,0.09
						c-0.65-0.04-1.3-0.11-1.96-0.22c-1.83-0.3-3.55-0.86-5.05-1.57l-0.2-0.1l-0.11,0.2c-0.96,1.74-2.5,2.96-4.04,3.59
						c-1.55,0.64-3.08,0.68-4.29,0.48c-1.22-0.19-2.14-0.61-2.73-0.93C307.22,280.43,306.92,280.2,306.9,280.23z"/>
				</g>
			</g>
		</g>
		<g>
			<g>
				<g>
					<g>
						<g>
							<g>
								<g>
									<g>
										<path class="st8" d="M336.24,421.37c0.03,0,0.07-0.34-0.03-0.94c-0.1-0.6-0.34-1.47-0.95-2.4
											c-0.16-0.23-0.31-0.47-0.57-0.69c-0.24-0.22-0.66-0.39-1.07-0.24c-0.2,0.07-0.4,0.25-0.47,0.47
											c-0.08,0.23-0.04,0.45,0.02,0.64c0.13,0.38,0.33,0.65,0.5,0.96c0.37,0.62,0.67,1.24,1.15,1.94
											c0.24,0.36,0.77,0.65,1.26,0.57c0.48-0.06,0.87-0.29,1.22-0.54c0.68-0.49,1.28-1.06,1.8-1.65
											c0.26-0.3,0.49-0.61,0.71-0.92c0.2-0.31,0.44-0.63,0.53-1.06c0.09-0.42-0.07-0.96-0.54-1.15
											c-0.48-0.17-0.87,0.07-1.14,0.26c-0.54,0.45-0.87,0.91-1.2,1.36c-0.63,0.89-0.98,1.71-1.18,2.28
											c-0.19,0.57-0.24,0.91-0.2,0.92c0.1,0.04,0.42-1.29,1.7-2.96c0.32-0.4,0.71-0.88,1.15-1.22c0.22-0.16,0.51-0.26,0.68-0.18
											c0.18,0.06,0.28,0.33,0.22,0.59c-0.06,0.27-0.26,0.56-0.47,0.85c-0.21,0.29-0.44,0.58-0.68,0.87
											c-0.49,0.56-1.07,1.09-1.71,1.56c-0.31,0.22-0.64,0.4-0.96,0.44c-0.31,0.04-0.56-0.09-0.77-0.35
											c-0.39-0.57-0.77-1.28-1.13-1.86c-0.17-0.31-0.38-0.6-0.47-0.86c-0.1-0.27-0.04-0.44,0.14-0.52
											c0.43-0.18,0.85,0.31,1.14,0.72C336.15,419.98,336.13,421.41,336.24,421.37z"/>
									</g>
								</g>
							</g>
						</g>
					</g>
				</g>
			</g>
			<g>
				<g>
					<g>
						<g>
							<g>
								<g>
									<polygon class="st11" points="311.83,422.21 299.71,448.48 280.15,439.44 292.68,406.93 									"/>
								</g>
							</g>
						</g>
					</g>
				</g>
				<g>
					<g>
						<g>
							<g>
								<g>
									<g>
										<g>
											<g>
												<g>
													<g>
														<g>
															<g>
																<g>
																	<g>
																		<g>
																			<path class="st9" d="M302,446.72l-7.08,13.51c0,0,18.13,18.74,16.43,22.93l-42.62-20.43l11.71-27.09L302,446.72z
																				"/>
																		</g>
																	</g>
																</g>
															</g>
														</g>
													</g>
												</g>
											</g>
										</g>
									</g>
								</g>
							</g>
							<g>
								<g>
									<g>
										<g>
											<g>
												<g>
													<g>
														<g>
															<g>
																<g>
																	<g>
																		<g>
																			<g>
																				<path class="st0" d="M282.62,452.06c-0.93-0.17-1.95,0.48-2.16,1.41c-0.21,0.93,0.45,1.96,1.38,2.15
																					c0.93,0.19,2.17-0.56,2.27-1.5c0.1-0.94-0.73-2.12-1.68-2.08"/>
																			</g>
																		</g>
																	</g>
																</g>
															</g>
														</g>
													</g>
												</g>
											</g>
										</g>
									</g>
								</g>
							</g>
							<g class="st13">
								<g>
									<g>
										<g>
											<g>
												<g>
													<g>
														<g>
															<g>
																<g>
																	<g>
																		<g>
																			<path class="st5" d="M268.72,462.73l1.77-3.4l40.2,20.86c0,0,1.5,1.74,0.65,2.97L268.72,462.73z"/>
																		</g>
																	</g>
																</g>
															</g>
														</g>
													</g>
												</g>
											</g>
										</g>
									</g>
								</g>
							</g>
							<g>
								<g>
									<g>
										<g>
											<g>
												<g>
													<g>
														<g>
															<g>
																<g>
																	<g>
																		<g>
																			<g>
																				<path class="st8" d="M295.71,460.34c-0.11,0.21-1.19-0.2-2.54-0.02c-1.35,0.14-2.31,0.79-2.46,0.62
																					c-0.17-0.13,0.73-1.23,2.37-1.41C294.71,459.32,295.85,460.17,295.71,460.34z"/>
																			</g>
																		</g>
																	</g>
																</g>
															</g>
														</g>
													</g>
												</g>
											</g>
										</g>
									</g>
								</g>
							</g>
							<g>
								<g>
									<g>
										<g>
											<g>
												<g>
													<g>
														<g>
															<g>
																<g>
																	<g>
																		<g>
																			<g>
																				<path class="st8" d="M299.29,464.34c-0.05,0.22-1.12,0.15-2.25,0.69c-1.14,0.51-1.78,1.37-1.98,1.27
																					c-0.21-0.06,0.23-1.35,1.65-2C298.12,463.64,299.38,464.13,299.29,464.34z"/>
																			</g>
																		</g>
																	</g>
																</g>
															</g>
														</g>
													</g>
												</g>
											</g>
										</g>
									</g>
								</g>
							</g>
							<g>
								<g>
									<g>
										<g>
											<g>
												<g>
													<g>
														<g>
															<g>
																<g>
																	<g>
																		<g>
																			<g>
																				<path class="st8" d="M299.27,470.9c-0.21-0.05,0-1.22,1.08-2.11c1.07-0.89,2.27-0.87,2.28-0.65
																					c0.04,0.23-0.89,0.54-1.77,1.27C299.96,470.13,299.48,470.98,299.27,470.9z"/>
																			</g>
																		</g>
																	</g>
																</g>
															</g>
														</g>
													</g>
												</g>
											</g>
										</g>
									</g>
								</g>
							</g>
							<g>
								<g>
									<g>
										<g>
											<g>
												<g>
													<g>
														<g>
															<g>
																<g>
																	<g>
																		<g>
																			<g>
																				<path class="st8" d="M297.74,455.14c-0.18,0.15-1-0.6-2.21-1.08c-1.2-0.51-2.31-0.55-2.33-0.78
																					c-0.05-0.21,1.21-0.55,2.64,0.04C297.26,453.9,297.92,455.03,297.74,455.14z"/>
																			</g>
																		</g>
																	</g>
																</g>
															</g>
														</g>
													</g>
												</g>
											</g>
										</g>
									</g>
								</g>
							</g>
						</g>
					</g>
				</g>
				<g>
					<g>
						<g>
							<g>
								<g>
									<path class="st8" d="M305.99,443.22l31.95-79.96c0,0-0.72-13.64-3.23-17.95c-2.51-4.31-78.63-29.44-78.63-29.44
										s-19.39-4.67-32.31,0c-12.93,4.67-22.62,20.82-20.82,29.8c1.8,8.98,10.05,16.25,10.05,16.25l55.3,0.98l30.51,11.13
										l-20.55,58.88L305.99,443.22z"/>
								</g>
							</g>
						</g>
					</g>
				</g>
				<g>
					<g>
						<g>
							<g>
								<g>
									<polygon class="st11" points="334.41,388.58 335.13,417.5 313.59,418.03 310.49,383.32 									"/>
								</g>
							</g>
						</g>
					</g>
				</g>
				<g>
					<g>
						<g>
							<g>
								<g>
									<g>
										<g>
											<g>
												<g>
													<g>
														<g>
															<g>
																<g>
																	<g>
																		<g>
																			<path class="st9" d="M336.41,414.91l-0.39,15.24c0,0,24.54,8.82,24.86,13.33l-47.26,0.48l-1.45-29.48
																				L336.41,414.91z"/>
																		</g>
																	</g>
																</g>
															</g>
														</g>
													</g>
												</g>
											</g>
										</g>
									</g>
								</g>
							</g>
							<g>
								<g>
									<g>
										<g>
											<g>
												<g>
													<g>
														<g>
															<g>
																<g>
																	<g>
																		<g>
																			<g>
																				<path class="st0" d="M321.38,428.26c-0.91,0.26-1.53,1.29-1.31,2.22c0.22,0.92,1.27,1.56,2.19,1.32
																					c0.92-0.24,1.7-1.46,1.38-2.35c-0.32-0.89-1.59-1.58-2.43-1.12"/>
																			</g>
																		</g>
																	</g>
																</g>
															</g>
														</g>
													</g>
												</g>
											</g>
										</g>
									</g>
								</g>
							</g>
							<g class="st13">
								<g>
									<g>
										<g>
											<g>
												<g>
													<g>
														<g>
															<g>
																<g>
																	<g>
																		<g>
																			<path class="st5" d="M313.62,443.97l0.09-3.83l45.28,0.97c0,0,2.11,0.89,1.89,2.38L313.62,443.97z"/>
																		</g>
																	</g>
																</g>
															</g>
														</g>
													</g>
												</g>
											</g>
										</g>
									</g>
								</g>
							</g>
							<g>
								<g>
									<g>
										<g>
											<g>
												<g>
													<g>
														<g>
															<g>
																<g>
																	<g>
																		<g>
																			<g>
																				<path class="st8" d="M336.78,429.91c-0.01,0.23-1.16,0.35-2.29,1.1c-1.15,0.72-1.72,1.73-1.94,1.64
																					c-0.21-0.04,0.12-1.43,1.5-2.31C335.43,429.44,336.83,429.7,336.78,429.91z"/>
																			</g>
																		</g>
																	</g>
																</g>
															</g>
														</g>
													</g>
												</g>
											</g>
										</g>
									</g>
								</g>
							</g>
							<g>
								<g>
									<g>
										<g>
											<g>
												<g>
													<g>
														<g>
															<g>
																<g>
																	<g>
																		<g>
																			<g>
																				<path class="st8" d="M341.76,431.91c0.05,0.22-0.94,0.63-1.71,1.61c-0.8,0.96-0.99,2.02-1.22,2.01
																					c-0.22,0.04-0.39-1.31,0.6-2.52C340.4,431.8,341.75,431.69,341.76,431.91z"/>
																			</g>
																		</g>
																	</g>
																</g>
															</g>
														</g>
													</g>
												</g>
											</g>
										</g>
									</g>
								</g>
							</g>
							<g>
								<g>
									<g>
										<g>
											<g>
												<g>
													<g>
														<g>
															<g>
																<g>
																	<g>
																		<g>
																			<g>
																				<path class="st8" d="M344.64,437.81c-0.21,0.05-0.54-1.1,0.04-2.37c0.57-1.27,1.65-1.78,1.75-1.59
																					c0.13,0.19-0.56,0.87-1.02,1.92C344.92,436.82,344.86,437.79,344.64,437.81z"/>
																			</g>
																		</g>
																	</g>
																</g>
															</g>
														</g>
													</g>
												</g>
											</g>
										</g>
									</g>
								</g>
							</g>
							<g>
								<g>
									<g>
										<g>
											<g>
												<g>
													<g>
														<g>
															<g>
																<g>
																	<g>
																		<g>
																			<g>
																				<path class="st8" d="M336.31,424.35c-0.09,0.21-1.16-0.1-2.46,0.01c-1.31,0.08-2.32,0.52-2.44,0.33
																					c-0.14-0.17,0.85-1.03,2.38-1.13C335.33,423.44,336.42,424.16,336.31,424.35z"/>
																			</g>
																		</g>
																	</g>
																</g>
															</g>
														</g>
													</g>
												</g>
											</g>
										</g>
									</g>
								</g>
							</g>
						</g>
					</g>
				</g>
				<g>
					<g>
						<g>
							<g>
								<g>
									<path class="st8" d="M321.83,308.27c0,0,12.91-1.03,14.34,12.97c1.44,14,2.85,79.35,2.85,79.35l-30.16,2.51l-4.67-66.78
										l-48.11-20.47C256.08,315.86,313.21,306.48,321.83,308.27z"/>
								</g>
							</g>
						</g>
					</g>
				</g>
				<g>
					<g>
						<g>
							<g>
								<g>
									<path class="st8" d="M268.64,289.38c0,0,7.83,21.96,6.34,24.41c-1.49,2.45-21.63,12.52-21.63,12.52l-50.4,19.36
										c0,0-5.18-8.23-5.18-20.88c0-12.65,17.53-35.4,17.53-35.4H268.64z"/>
								</g>
							</g>
						</g>
					</g>
				</g>
				<g>
					<g>
						<g>
							<g>
								<g>
									<g>
										<path class="st10" d="M253.7,314.74c0,0.01,0.08,0.05,0.24,0.13c0.18,0.09,0.42,0.19,0.72,0.33
											c0.66,0.3,1.6,0.71,2.79,1.24c2.47,1.08,6.03,2.63,10.48,4.56c8.99,3.87,21.59,9.29,36.17,15.57l-0.16-0.23
											c0.46,6.6,0.95,13.72,1.46,21.09c1.23,17.23,2.36,33.12,3.25,45.69l0.02,0.23l0.23-0.02c9.17-0.81,16.7-1.47,21.97-1.93
											c2.59-0.24,4.63-0.43,6.05-0.57c0.67-0.07,1.19-0.12,1.58-0.16c0.36-0.04,0.54-0.07,0.54-0.08c0-0.01-0.19-0.01-0.54,0.01
											c-0.39,0.02-0.91,0.06-1.59,0.1c-1.43,0.1-3.46,0.25-6.06,0.44c-5.27,0.42-12.81,1.01-21.99,1.73l0.24,0.21
											c-0.86-12.57-1.95-28.46-3.14-45.69c-0.52-7.37-1.02-14.49-1.49-21.09l-0.01-0.17l-0.15-0.06
											c-14.61-6.2-27.24-11.56-36.25-15.39c-4.47-1.88-8.05-3.38-10.54-4.42c-1.21-0.5-2.15-0.88-2.83-1.16
											c-0.3-0.12-0.54-0.21-0.73-0.29C253.79,314.76,253.7,314.73,253.7,314.74z"/>
									</g>
								</g>
							</g>
						</g>
					</g>
				</g>
				<g>
					<g>
						<g>
							<g>
								<g>
									<g>
										<path class="st10" d="M213.61,316.94c0.01,0.04,0.52-0.1,1.41-0.39c1-0.32,2.27-0.73,3.79-1.22
											c3.2-1.02,7.64-2.43,12.7-3.21c5.06-0.78,9.73-0.54,13,0.17c3.28,0.68,5.17,1.62,5.21,1.51c0.01-0.03-0.44-0.29-1.31-0.66
											c-0.87-0.38-2.16-0.84-3.81-1.23c-3.29-0.82-8.05-1.13-13.17-0.34c-5.12,0.79-9.57,2.27-12.74,3.39
											c-1.59,0.56-2.86,1.05-3.74,1.39C214.08,316.69,213.6,316.9,213.61,316.94z"/>
									</g>
								</g>
							</g>
						</g>
					</g>
				</g>
				<g>
					<g>
						<g>
							<g>
								<g>
									<g>
										<path class="st10" d="M220.74,305.36c0.01,0.09,1.69-0.24,4.41-0.03c1.36,0.09,2.97,0.3,4.77,0.51
											c1.8,0.21,3.77,0.46,5.81,0.84c4.09,0.73,7.62,2.16,9.88,3.66c2.28,1.48,3.35,2.84,3.42,2.76
											c0.02-0.02-0.21-0.38-0.73-0.95c-0.52-0.57-1.33-1.35-2.47-2.14c-2.25-1.63-5.85-3.15-9.99-3.89
											c-2.07-0.39-4.05-0.62-5.85-0.8c-1.8-0.18-3.43-0.35-4.81-0.39c-1.38-0.05-2.5,0.03-3.26,0.15
											C221.14,305.2,220.73,305.33,220.74,305.36z"/>
									</g>
								</g>
							</g>
						</g>
					</g>
				</g>
			</g>
		</g>
		<g>
			<g>
				<g>
					<path class="st8" d="M243,128.89c-5.8-0.99-10.9,1.25-15.79,4.52c-4.89,3.27-8.57,8.2-10.7,13.69
						c-2.24,5.78-2.78,12.28-1.06,18.23c1.72,5.95,5.8,11.28,11.32,14.09c7.54,3.83,17.19,2.5,23.94-2.61
						c6.75-5.1,10.61-13.54,10.93-21.99c0.22-5.82-1.17-11.78-4.42-16.62C253.96,133.35,248.77,129.73,243,128.89"/>
				</g>
			</g>
			<g>
				<g>
					<g>
						<g>
							<path class="st8" d="M226.51,148.61c0.85-2.22,0.52-4.7,0.85-7.05c0.74-5.18,4.91-9.33,9.74-11.35
								c4.49-1.88,9.97-1.47,15.38,0.28c3.71,1.2,7.2,3.29,9.67,6.3c3.28,4,4.44,9.64,2.99,14.61l-26.49-3.86
								c-2.48,2.05-5.02,4.14-8.03,5.28c-0.88,0.34-1.83,0.59-2.77,0.44c-0.93-0.15-1.84-0.78-2.06-1.7
								C225.54,150.56,226.14,149.57,226.51,148.61z"/>
						</g>
					</g>
				</g>
				<g>
					<g>
						<g>
							<path class="st11" d="M253.04,137.8l-23.13,4.9c-2.24,0.15-3.99,1.99-4.03,4.23l0.28,50.05c0.02,3.42,1.16,6.74,3.26,9.44
								l2.21,2.84c5.03,6.49,15.22,5.83,19.06-1.42c0.27-0.51,0.45-0.95,0.53-1.31c0.08-0.45,0.2-0.75,0.22-1.13l0.44-4.88
								c0.23-4.46,0.26-8.99,0.26-8.94c0,0,9.47-1.2,11.89-13.39c1.21-6.06,1.29-16.08,1.09-24.28
								C264.93,146.53,260.41,137.31,253.04,137.8z"/>
						</g>
					</g>
				</g>
				<g>
					<g>
						<g>
							<g>
								<g>
									<g>
										<g>
											<g>
												<g>
													<g>
														<g>
															<g>
																<g>
																	<g>
																		<g>
																			<g>
																				<g>
																					<g>
																						<g>
																							<path class="st8" d="M261.22,164.14c0,0.83-0.71,1.52-1.58,1.53c-0.87,0.01-1.57-0.65-1.57-1.48
																								c0-0.83,0.71-1.52,1.58-1.53C260.52,162.64,261.22,163.31,261.22,164.14z"/>
																						</g>
																					</g>
																				</g>
																			</g>
																		</g>
																	</g>
																</g>
															</g>
														</g>
													</g>
												</g>
											</g>
										</g>
									</g>
								</g>
							</g>
							<g>
								<g>
									<g>
										<g>
											<g>
												<g>
													<g>
														<g>
															<g>
																<g>
																	<g>
																		<g>
																			<g>
																				<g>
																					<g>
																						<g>
																							<g>
																								<path class="st8" d="M262.74,159.03c-0.2,0.2-1.36-0.73-3.05-0.79c-1.69-0.09-2.97,0.74-3.14,0.52
																									c-0.09-0.1,0.13-0.46,0.68-0.83c0.55-0.37,1.47-0.72,2.53-0.67c1.05,0.05,1.93,0.47,2.42,0.89
																									C262.68,158.57,262.84,158.95,262.74,159.03z"/>
																							</g>
																						</g>
																					</g>
																				</g>
																			</g>
																		</g>
																	</g>
																</g>
															</g>
														</g>
													</g>
												</g>
											</g>
										</g>
									</g>
								</g>
							</g>
						</g>
						<g>
							<g>
								<g>
									<g>
										<g>
											<g>
												<g>
													<g>
														<g>
															<g>
																<g>
																	<g>
																		<g>
																			<g>
																				<g>
																					<g>
																						<g>
																							<path class="st8" d="M245.57,163.33c0,0.83-0.71,1.52-1.58,1.53c-0.87,0.01-1.57-0.65-1.57-1.48
																								c0-0.83,0.71-1.52,1.58-1.53C244.87,161.83,245.58,162.5,245.57,163.33z"/>
																						</g>
																					</g>
																				</g>
																			</g>
																		</g>
																	</g>
																</g>
															</g>
														</g>
													</g>
												</g>
											</g>
										</g>
									</g>
								</g>
							</g>
							<g>
								<g>
									<g>
										<g>
											<g>
												<g>
													<g>
														<g>
															<g>
																<g>
																	<g>
																		<g>
																			<g>
																				<g>
																					<g>
																						<g>
																							<g>
																								<path class="st8" d="M246.66,158.62c-0.2,0.2-1.36-0.73-3.06-0.79c-1.69-0.09-2.97,0.74-3.14,0.52
																									c-0.09-0.1,0.12-0.46,0.68-0.83c0.55-0.37,1.47-0.72,2.53-0.67c1.05,0.05,1.93,0.47,2.42,0.89
																									C246.6,158.16,246.76,158.53,246.66,158.62z"/>
																							</g>
																						</g>
																					</g>
																				</g>
																			</g>
																		</g>
																	</g>
																</g>
															</g>
														</g>
													</g>
												</g>
											</g>
										</g>
									</g>
								</g>
							</g>
						</g>
						<g>
							<g>
								<g>
									<g>
										<g>
											<g>
												<g>
													<g>
														<g>
															<g>
																<g>
																	<g>
																		<g>
																			<g>
																				<g>
																					<g>
																						<g>
																							<path class="st8" d="M251.74,171.5c0-0.1,1.06-0.24,2.77-0.39c0.43-0.03,0.85-0.1,0.93-0.39
																								c0.11-0.31-0.05-0.78-0.24-1.29c-0.37-1.06-0.75-2.18-1.15-3.34c-1.59-4.76-2.73-8.66-2.54-8.72
																								c0.19-0.06,1.64,3.74,3.23,8.5c0.38,1.17,0.75,2.29,1.1,3.36c0.14,0.5,0.4,1.07,0.16,1.71
																								c-0.13,0.32-0.46,0.54-0.74,0.6c-0.28,0.07-0.52,0.07-0.74,0.07C252.81,171.63,251.74,171.6,251.74,171.5z"
																								/>
																						</g>
																					</g>
																				</g>
																			</g>
																		</g>
																	</g>
																</g>
															</g>
														</g>
													</g>
												</g>
											</g>
										</g>
									</g>
								</g>
							</g>
						</g>
						<g>
							<g>
								<g>
									<g>
										<g>
											<g>
												<g>
													<g>
														<g>
															<g>
																<g>
																	<g>
																		<g>
																			<g>
																				<g>
																					<g>
																						<path class="st12" d="M252.13,191.59c0,0-8.28,0.21-16.26-5.02c0,0,3.8,8.65,16.13,7.98L252.13,191.59z"/>
																					</g>
																				</g>
																			</g>
																		</g>
																	</g>
																</g>
															</g>
														</g>
													</g>
												</g>
											</g>
										</g>
									</g>
								</g>
							</g>
						</g>
						<g>
							<g>
								<g>
									<g>
										<g>
											<g>
												<g>
													<g>
														<g>
															<g>
																<g>
																	<g>
																		<g>
																			<g>
																				<g>
																					<g>
																						<path class="st12" d="M250.87,175.55c-0.58-0.83-1.63-1.31-2.69-1.24c-0.74,0.05-1.49,0.38-1.96,0.96
																							c-0.47,0.58-0.6,1.43-0.21,2.01c0.43,0.66,1.38,0.85,2.2,0.65c0.82-0.2,1.53-0.7,2.21-1.21
																							c0.19-0.14,0.38-0.29,0.5-0.48c0.12-0.2,0.16-0.46,0.02-0.63"/>
																					</g>
																				</g>
																			</g>
																		</g>
																	</g>
																</g>
															</g>
														</g>
													</g>
												</g>
											</g>
										</g>
									</g>
								</g>
							</g>
						</g>
						<g>
							<g>
								<g>
									<g>
										<g>
											<g>
												<g>
													<g>
														<g>
															<g>
																<g>
																	<g>
																		<g>
																			<g>
																				<g>
																					<g>
																						<g>
																							<path class="st8" d="M246.71,172.48c0.28-0.01,0.21,1.83,1.73,3.2c1.52,1.37,3.49,1.24,3.49,1.5
																								c0.02,0.12-0.45,0.34-1.28,0.33c-0.81,0-1.99-0.31-2.92-1.15c-0.93-0.84-1.3-1.92-1.33-2.68
																								C246.36,172.91,246.59,172.46,246.71,172.48z"/>
																						</g>
																					</g>
																				</g>
																			</g>
																		</g>
																	</g>
																</g>
															</g>
														</g>
													</g>
												</g>
											</g>
										</g>
									</g>
								</g>
							</g>
						</g>
					</g>
				</g>
				<g>
					<g>
						<g>
							<g>
								<g>
									<g>
										<g>
											<g>
												<g>
													<g>
														<g>
															<g>
																<g>
																	<g>
																		<g>
																			<path class="st8" d="M246.57,153.6c-0.18,0.45-1.87,0.17-3.86,0.33c-2,0.12-3.62,0.64-3.87,0.22
																				c-0.11-0.2,0.19-0.62,0.85-1.04c0.66-0.42,1.7-0.8,2.9-0.89c1.2-0.08,2.28,0.15,2.99,0.47
																				C246.29,153,246.65,153.38,246.57,153.6z"/>
																		</g>
																	</g>
																</g>
															</g>
														</g>
													</g>
												</g>
											</g>
										</g>
									</g>
								</g>
							</g>
						</g>
					</g>
				</g>
				<g>
					<g>
						<g>
							<g>
								<g>
									<g>
										<g>
											<g>
												<g>
													<g>
														<g>
															<g>
																<g>
																	<g>
																		<g>
																			<path class="st8" d="M262.54,151.61c-0.31,0.37-1.46-0.07-2.87-0.15c-1.4-0.12-2.6,0.16-2.86-0.25
																				c-0.11-0.2,0.09-0.58,0.62-0.92c0.53-0.34,1.39-0.61,2.36-0.54c0.96,0.07,1.78,0.45,2.26,0.86
																				C262.53,151.02,262.68,151.43,262.54,151.61z"/>
																		</g>
																	</g>
																</g>
															</g>
														</g>
													</g>
												</g>
											</g>
										</g>
									</g>
								</g>
							</g>
						</g>
					</g>
				</g>
				<g>
					<g>
						<g>
							<path class="st8" d="M222.27,145.03c2.4-7.04,12.87-16.64,20.28-15.97l11.71,7.34c-0.8,4.02-3.99,7.48-7.93,8.59
								c-2.11,0.6-4.63,0.72-5.92,2.5c-1.31,1.81-0.62,4.51-1.84,6.38c-1.69,2.6-6.18,2.38-7.46,5.2c-0.56,1.23-0.31,2.72-0.9,3.94
								c-0.78,1.63-4.98,3.63-6.69,3.05c-1.71-0.58-1.66-3.51-2.19-5.05c-0.91-2.64-0.49-3.99-0.14-5.45
								C222.01,152.11,221.12,148.39,222.27,145.03z"/>
						</g>
					</g>
				</g>
				<g>
					<g>
						<g>
							<g>
								<g>
									<g>
										<path class="st11" d="M228.56,167.62c0.03-0.91-0.94-3.11-1.84-3.29c-2.4-0.47-6.75-0.44-7.02,5.67
											c-0.38,8.36,8.1,7.02,8.12,6.78C227.84,176.61,228.45,170.78,228.56,167.62z"/>
									</g>
								</g>
							</g>
						</g>
					</g>
				</g>
				<g>
					<g>
						<g>
							<g>
								<g>
									<g>
										<g>
											<path class="st12" d="M225.41,173.51c-0.04-0.03-0.15,0.1-0.4,0.2c-0.25,0.1-0.66,0.16-1.09-0.03
												c-0.87-0.36-1.55-1.8-1.52-3.31c0.01-0.76,0.21-1.48,0.5-2.07c0.28-0.6,0.7-1.01,1.15-1.07c0.45-0.08,0.75,0.2,0.84,0.44
												c0.1,0.24,0.04,0.4,0.08,0.42c0.02,0.02,0.19-0.13,0.13-0.48c-0.03-0.17-0.12-0.37-0.31-0.54
												c-0.19-0.17-0.48-0.27-0.8-0.25c-0.65,0.02-1.25,0.58-1.58,1.23c-0.36,0.65-0.6,1.45-0.61,2.31
												c-0.02,1.69,0.77,3.3,1.96,3.71c0.58,0.18,1.08,0.03,1.34-0.16C225.39,173.71,225.44,173.53,225.41,173.51z"/>
										</g>
									</g>
								</g>
							</g>
						</g>
					</g>
				</g>
			</g>
			<g>
				<g>
					<path class="st8" d="M220.48,142.86L220.48,142.86c0.03-2.62-3.24-4.33-5.79-4.92c-2.55-0.59-5.24,0.18-7.54,1.44
						c-1.34,0.74-2.69,1.78-3,3.28c-0.3,1.5,1.14,3.29,2.58,2.75c-2.75,0.94-4.14,4.61-2.71,7.13c1.43,2.53,5.29,3.22,7.51,1.35
						c-0.72,2.4-2.28,4.53-4.35,5.94c4.3,0.61,8.87-1.22,11.55-4.65C221.41,151.77,222.1,146.89,220.48,142.86z"/>
				</g>
			</g>
			<g>
				<g>
					<g>
						<path class="st9" d="M214.67,156.17c-0.06,0.01-0.28-0.94-0.31-2.51c-0.03-1.57,0.2-3.75,0.96-6.04
							c0.77-2.28,1.91-4.16,2.89-5.39c0.97-1.23,1.73-1.85,1.77-1.81c0.15,0.11-2.65,2.89-4.13,7.38
							C214.31,152.26,214.86,156.17,214.67,156.17z"/>
					</g>
				</g>
			</g>
			<g>
				<g>
					<path class="st8" d="M251.82,133.87c0.77,3.41,5.95,7.77,8.22,10.42c4.33,5.06,5.19,6.74,5.15,18.05
						c2.05-3.91,3.61-7.73,3.46-12.14c-0.16-4.41-1.78-8.82-4.84-11.99C260.74,135.04,256.19,133.24,251.82,133.87"/>
				</g>
			</g>
		</g>
		<g>
			<g>
				<g>
					<g>
						<g>
							<path class="st9" d="M287.3,226.94c0,0-9.02-15.03-11.52-18.07c-2.35-2.85-5.37-4.53-7.38-5.41
								c-1.12-0.49-2.3-0.83-3.51-1.04l-12.96-2.87c0,0-0.02,8.85-9.3,9.4c-9.27,0.55-17.08-12.37-17.08-12.37
								s-14.98,2.32-18.56,4.16c-3.58,1.84-9.22,4.19-12.32,19.71l-2.18,15.18l25.83,2.39l2.47,38.38l12.81,8.92
								c0,0,35.51,9.23,37.78,9.84c2.27,0.61,3.02-57.14,3.02-57.14S283.52,232.11,287.3,226.94z"/>
						</g>
					</g>
				</g>
			</g>
			<g>
				<g>
					<path class="st8" d="M270.3,220.49c0.03-0.01,0.21,0.38,0.5,1.11c0.3,0.72,0.67,1.79,1.09,3.12c0.84,2.66,1.76,6.43,2.29,10.67
						c0.51,4.24,0.53,8.12,0.35,10.91c-0.08,1.39-0.19,2.52-0.31,3.29c-0.11,0.77-0.18,1.2-0.22,1.19c-0.04,0-0.03-0.44,0.02-1.21
						c0.05-0.78,0.1-1.9,0.14-3.29c0.08-2.78,0.01-6.62-0.5-10.83c-0.52-4.2-1.38-7.95-2.12-10.63c-0.37-1.34-0.69-2.42-0.93-3.16
						C270.38,220.92,270.27,220.5,270.3,220.49z"/>
				</g>
			</g>
		</g>
		<g>
			<g>
				<g>
					<path class="st11" d="M269.2,283.35l-48.63-10.59l-2.25-34.76l-21.63-2c0,0,0.8,23.76,1.63,30.83
						c1.2,10.16,7.2,24.02,10.72,26.79c3.51,2.77,62.34,1.52,62.34,1.52L269.2,283.35z"/>
				</g>
			</g>
			<g>
				<g>
					<path class="st11" d="M296.8,289.65c-0.34,0.68-1.05,1.12-1.81,1.05c-0.15-0.01-0.31-0.04-0.47-0.1
						c-1.08-0.35-0.97-2.54-0.97-2.54l-5.15-0.84c0,0-6.7,4.32-9.09,7.19c-2.38,2.86-8.47,0.54-8.47,0.54l-2.11-10.98l9.49-8.58
						c0,0-0.58,0.51,0.07-1.09c0.65-1.6,3.64-1,3.64-1c0.46-0.79,2.41-1.08,2.41-1.08l8.32,0.96c1.71,0.2,3.25,1.16,4.17,2.62
						l3.52,5.57c0,0,1.86,4.01,1.56,4.94c-0.45,1.41-1.94,1.09-1.94,1.09s-0.41,2.64-1.1,2.73S296.8,289.65,296.8,289.65
						L296.8,289.65z"/>
				</g>
			</g>
			<g>
				<g>
					<g>
						<path class="st12" d="M279.09,281.76c0.01,0.09,1.12-0.01,2.89,0.06c1.77,0.09,4.23,0.4,6.79,1.27
							c1.28,0.43,2.46,0.95,3.5,1.5c1.01,0.57,2.05,1.03,2.38,1.76c0.16,0.36,0.09,0.72-0.09,0.99c-0.18,0.27-0.42,0.44-0.63,0.53
							c-0.44,0.18-0.72,0.06-0.73,0.11c-0.02,0.01,0.26,0.23,0.8,0.09c0.26-0.07,0.56-0.24,0.8-0.55c0.25-0.29,0.39-0.82,0.2-1.3
							c-0.18-0.49-0.59-0.86-1.04-1.17c-0.45-0.3-0.93-0.6-1.46-0.88c-1.05-0.58-2.25-1.13-3.56-1.57
							c-2.62-0.89-5.15-1.15-6.95-1.14C280.18,281.47,279.08,281.71,279.09,281.76z"/>
					</g>
				</g>
			</g>
			<g>
				<g>
					<g>
						<path class="st12" d="M278.51,287.07c0.01,0.16,3.4,0.02,7.56,0.26c4.16,0.23,7.51,0.75,7.54,0.6
							c0.01-0.07-0.81-0.29-2.17-0.53c-1.35-0.24-3.24-0.48-5.34-0.6c-2.1-0.12-4-0.09-5.37-0.01
							C279.35,286.87,278.51,287,278.51,287.07z"/>
					</g>
				</g>
			</g>
			<g>
				<g>
					<g>
						<path class="st12" d="M296.75,289.44c0.03,0,0.06-0.31,0.1-0.89c0.03-0.57,0.07-1.4,0.01-2.44c-0.04-0.52-0.09-1.08-0.23-1.69
							c-0.13-0.61-0.42-1.25-0.82-1.81c-0.75-1.13-1.79-2.31-3.12-3.19c-1.32-0.87-2.64-1.61-3.98-2.01
							c-1.33-0.4-2.57-0.5-3.59-0.55c-1.03-0.04-1.86-0.01-2.43,0.01c-0.57,0.02-0.89,0.05-0.89,0.09c0,0.09,1.27,0.13,3.3,0.28
							c1.01,0.09,2.21,0.23,3.47,0.64c1.25,0.4,2.55,1.14,3.82,1.98c1.28,0.86,2.25,1.93,3.02,3.03c0.8,1.05,0.95,2.25,1.08,3.26
							C296.69,288.17,296.64,289.45,296.75,289.44z"/>
					</g>
				</g>
			</g>
			<g>
				<g>
					<g>
						<path class="st12" d="M284.73,274.35c0,0.08,1.24,0.11,3.23,0.34c1.91,0.29,4.98,0.43,6.72,3.07c1.89,2.4,3.5,4.67,4.2,6.53
							c0.74,1.85,0.68,3.12,0.79,3.12c0.03,0,0.08-0.31,0.05-0.88c-0.02-0.57-0.15-1.4-0.48-2.36c-0.64-1.96-2.24-4.31-4.14-6.73
							c-0.48-0.61-1.01-1.18-1.62-1.63c-0.61-0.46-1.31-0.73-1.96-0.92c-1.31-0.37-2.52-0.48-3.53-0.56
							C285.98,274.18,284.73,274.28,284.73,274.35z"/>
					</g>
				</g>
			</g>
			<g>
				<g>
					<g>
						<path class="st12" d="M281.12,292.65c0.01,0.01,0.18-0.12,0.49-0.38c0.36-0.29,0.82-0.66,1.39-1.12
							c1.23-0.95,3.06-2.3,5.47-3.77l-0.12,0.02c1.54,0.26,3.27,0.56,5.15,0.88l-0.18-0.22c-0.01,0.42,0.01,0.83,0.1,1.26
							c0.09,0.42,0.22,0.87,0.58,1.24c0.19,0.18,0.46,0.29,0.68,0.31c0.23,0.06,0.48,0.08,0.72,0.04c0.49-0.07,0.95-0.33,1.28-0.71
							c0.08-0.09,0.16-0.2,0.22-0.3l0.05-0.08l0.02-0.04l0.01-0.02l0,0c0.07-0.03-0.58,0.21-0.3,0.11l0.01,0l0.01,0l0.16,0.07
							c0.22,0.09,0.44,0.16,0.67,0.24c0.23,0.07,0.46,0.13,0.71,0.18c0.12,0.02,0.25,0.04,0.38,0.04c0.13,0,0.28,0.01,0.48-0.09
							c0.29-0.21,0.39-0.45,0.5-0.68c0.1-0.23,0.19-0.47,0.26-0.71c0.14-0.48,0.25-0.96,0.33-1.46l-0.3,0.21
							c0.67,0.12,1.46-0.04,1.92-0.65c0.21-0.28,0.38-0.64,0.35-1.04c-0.02-0.36-0.1-0.68-0.18-1c-0.36-1.26-0.87-2.48-1.42-3.71
							l-0.01-0.01l-0.01-0.02c-0.6-0.95-1.23-1.95-1.88-2.97c-0.4-0.63-0.8-1.26-1.19-1.88c-0.4-0.6-0.75-1.28-1.3-1.82
							c-0.53-0.54-1.18-0.96-1.87-1.24c-0.69-0.3-1.45-0.37-2.12-0.44c-2.76-0.31-5.39-0.61-7.84-0.88l-0.03,0l-0.03,0
							c-0.48,0.08-0.93,0.19-1.38,0.36c-0.43,0.17-0.89,0.37-1.19,0.84l0.29-0.09c-0.88-0.36-1.9-0.37-2.67,0.15
							c-0.77,0.51-1.13,1.33-1.32,2.11l0.06-0.11c-2.72,2.45-4.95,4.45-6.54,5.88c-0.73,0.68-1.32,1.22-1.76,1.62
							c-0.4,0.38-0.6,0.58-0.59,0.6c0.01,0.01,0.24-0.16,0.66-0.51c0.46-0.39,1.07-0.9,1.83-1.54c1.62-1.4,3.88-3.35,6.65-5.75
							l0.04-0.04l0.02-0.07c0.17-0.68,0.53-1.43,1.17-1.83c0.62-0.42,1.52-0.41,2.25-0.1l0.18,0.08l0.11-0.17
							c0.18-0.28,0.57-0.49,0.97-0.63c0.4-0.15,0.84-0.26,1.28-0.33l-0.06,0c2.46,0.29,5.08,0.6,7.84,0.93
							c0.7,0.08,1.36,0.14,1.99,0.41c0.62,0.25,1.2,0.64,1.69,1.13c0.49,0.47,0.82,1.11,1.23,1.74c0.39,0.62,0.79,1.25,1.19,1.88
							c0.64,1.02,1.28,2.02,1.88,2.97l-0.02-0.03c0.54,1.2,1.05,2.42,1.4,3.62c0.08,0.3,0.16,0.61,0.17,0.88
							c0.03,0.24-0.09,0.49-0.25,0.71c-0.3,0.42-0.9,0.56-1.41,0.47l-0.26-0.04l-0.04,0.25c-0.08,0.47-0.18,0.95-0.31,1.39
							c-0.12,0.42-0.31,0.94-0.54,1.11c-0.01,0.01-0.1,0.03-0.21,0.02c-0.1,0-0.21-0.02-0.32-0.03c-0.21-0.04-0.43-0.09-0.65-0.16
							c-0.21-0.07-0.43-0.14-0.63-0.22l-0.15-0.06l-0.01,0l0,0c0.27-0.1-0.37,0.13-0.31,0.11l0,0l-0.01,0.02l-0.02,0.03l-0.04,0.07
							c-0.05,0.08-0.11,0.17-0.18,0.24c-0.26,0.3-0.62,0.51-0.99,0.56c-0.19,0.03-0.38,0.02-0.57-0.03
							c-0.21-0.03-0.34-0.09-0.47-0.2c-0.49-0.51-0.56-1.42-0.56-2.15l0-0.19l-0.18-0.03c-1.88-0.29-3.62-0.57-5.16-0.81l-0.07-0.01
							l-0.05,0.03c-2.41,1.52-4.21,2.92-5.41,3.92c-0.6,0.5-1.04,0.91-1.34,1.19C281.26,292.48,281.11,292.64,281.12,292.65z"/>
					</g>
				</g>
			</g>
		</g>
		<g>
			<g>
				<g>
					<g>
						<path class="st0" d="M350.06,257.7l-64.05,0.52c-2.08,0-4.06,1-4.37,3.05l-7,46.68h-32.99c-1.06,0-1.92,0.86-1.92,1.92
							c0,1.06,0.86,1.92,1.92,1.92h32.42h6.15h66.81l7.2-49.27C354.6,259.99,352.64,257.7,350.06,257.7z"/>
					</g>
				</g>
				<g>
					<g>
						<g>
							<path class="st8" d="M350.06,257.7c0,0,0.35-0.04,1.01,0.09c0.64,0.15,1.65,0.54,2.45,1.62c0.4,0.53,0.7,1.23,0.79,2.04
								c0.1,0.82-0.13,1.69-0.24,2.63c-0.27,1.89-0.58,4.06-0.92,6.5c-1.41,9.79-3.44,23.89-5.94,41.24l-0.02,0.17l-0.17,0
								c-27.27,0.02-63.1,0.04-102.23,0.06c-0.92,0-1.84,0-2.75,0c-0.42,0.02-1.02-0.01-1.46-0.28c-0.45-0.25-0.81-0.67-0.99-1.16
								c-0.38-0.98,0.07-2.17,0.99-2.66c0.44-0.27,1.02-0.29,1.44-0.27l1.36,0c3.61,0,7.18,0,10.71,0c7.05,0,13.92,0,20.54,0.01
								l-0.25,0.21c2.52-16.72,4.87-32.32,6.98-46.31c0.07-0.89,0.47-1.84,1.18-2.44c0.7-0.62,1.58-0.94,2.45-1.08
								c0.89-0.14,1.74-0.06,2.58-0.09c0.85-0.01,1.68-0.01,2.52-0.02c3.33-0.02,6.54-0.04,9.64-0.06
								c6.2-0.04,11.93-0.08,17.14-0.11c10.4-0.05,18.69-0.1,24.4-0.13c2.84-0.01,5.03-0.01,6.53-0.01c0.73,0,1.29,0.01,1.69,0.01
								C349.87,257.69,350.06,257.7,350.06,257.7s-0.19,0.02-0.57,0.03c-0.39,0.01-0.95,0.02-1.68,0.04
								c-1.5,0.02-3.69,0.05-6.53,0.09c-5.71,0.06-14,0.16-24.4,0.27c-5.21,0.05-10.94,0.11-17.14,0.17
								c-3.1,0.03-6.32,0.06-9.64,0.09c-0.83,0.01-1.67,0.02-2.51,0.02c-0.84,0.03-1.71-0.04-2.52,0.09
								c-0.81,0.13-1.62,0.44-2.23,0.99c-0.63,0.55-0.96,1.31-1.04,2.19c-2.09,13.99-4.41,29.59-6.91,46.32l-0.03,0.21h-0.21
								c-6.62,0-13.49,0-20.54,0.01c-3.53,0-7.1,0-10.71,0l-1.36,0c-0.48-0.01-0.83,0.01-1.19,0.21c-0.7,0.37-1.05,1.28-0.76,2.03
								c0.13,0.37,0.4,0.69,0.75,0.88c0.36,0.2,0.72,0.22,1.2,0.21c0.92,0,1.83,0,2.75,0c39.13,0.02,74.96,0.04,102.23,0.06
								l-0.2,0.17c2.57-17.33,4.66-31.43,6.11-41.21c0.37-2.44,0.69-4.61,0.98-6.49c0.11-0.94,0.36-1.81,0.26-2.6
								c-0.08-0.79-0.36-1.47-0.74-1.99c-0.76-1.06-1.74-1.47-2.37-1.63C350.41,257.69,350.06,257.72,350.06,257.7z"/>
						</g>
					</g>
				</g>
			</g>
			<g>
				<g>
					<path class="st5" d="M311.31,284.16c0,2.21,1.8,4.01,4.01,4.01c2.21,0,4.01-1.8,4.01-4.01c0-2.21-1.8-4.01-4.01-4.01
						C313.11,280.15,311.31,281.94,311.31,284.16z"/>
				</g>
			</g>
			<g>
				<g>
					<g>
						<path class="st8" d="M277.23,311.37c0.09,0.01,2.13-11.87,4.55-26.55c2.42-14.68,4.32-26.59,4.23-26.61
							c-0.09-0.01-2.13,11.87-4.55,26.55C279.03,299.45,277.14,311.36,277.23,311.37z"/>
					</g>
				</g>
			</g>
		</g>
	</g>
</g>
</svg>
